<?xml version="1.0" encoding="utf-8"?>
<!-- Generator: Adobe Illustrator 24.3.0, SVG Export Plug-In . SVG Version: 6.00 Build 0)  -->
<svg version="1.1" id="Capa_1" xmlns="http://www.w3.org/2000/svg" xmlns:xlink="http://www.w3.org/1999/xlink" x="0px" y="0px"
	 viewBox="0 0 1007 189.9" style="enable-background:new 0 0 1007 189.9;" xml:space="preserve">
<style type="text/css">
	.st0{fill:#0096CA;}
	.st1{fill:#FA8C00;}
	.st2{clip-path:url(#SVGID_2_);fill:#FA8C00;}
	.st3{clip-path:url(#SVGID_2_);fill:#241A61;}
</style>
<path class="st0" d="M566.8-1011.2c-1.6,1.1-3.4,0.7-5.2,0.7C563.3-1011.2,565.1-1011.4,566.8-1011.2z"/>
<path class="st1" d="M749.2,24l25.4,70.5h-51.7L749.2,24z M689.8,148.4h13.4l15.8-42.8h59.8l16,42.8h13.4L756.7,10.8h-14
	L689.8,148.4z"/>
<polygon class="st1" points="811.1,148.4 823.6,148.4 823.6,82.9 886.5,82.9 886.5,71.7 823.6,71.7 823.6,22 894.5,22 894.5,10.8 
	811.1,10.8 "/>
<g>
	<defs>
		<rect id="SVGID_1_" x="5.1" y="7.6" width="995.2" height="173.2"/>
	</defs>
	<clipPath id="SVGID_2_">
		<use xlink:href="#SVGID_1_"  style="overflow:visible;"/>
	</clipPath>
	<path class="st2" d="M915.5,22h43.1c17.3,0,29.3,9.3,29.3,28.1c0,18.9-12,28.1-29.3,28.1h-43.1V22z M903,148.4h12.5v-59h45.8
		c23.6,0,39-14.5,39-39.3c0-24.9-15.5-39.3-39-39.3H903V148.4z"/>
	<path class="st3" d="M131.2,62.1c-3.5-34.5-23.4-54.3-59.4-54.5C31.3,7.6,5.1,36.3,5.1,79.7c0,40.7,24.1,72.1,66.6,72.1
		c38.5,0,60-29.5,60-57.2H92c-2.4,12.9-7.7,22.9-21.3,22.9c-18.9,0-25-19.3-25-37.8c0-18.5,6.1-37.8,25-37.8
		c16.7,0,20.4,15.2,21.2,20.2H131.2z"/>
	<path class="st3" d="M236.2,48.4h-36.4v52.8c0,16-8.3,19.3-14.5,19.3c-10.7,0-12-8.1-12-19.7V48.4h-36.4V117
		c0,22.9,15.6,33.9,32.8,33.9c14.5,0,24.3-5.2,31.1-15.2h0.4v12.7h35.1V48.4z"/>
	<path class="st3" d="M523.3,48.4h-36.4v52.8c0,16-8.3,19.3-14.5,19.3c-10.7,0-12-8.1-12-19.7V48.4H424V117
		c0,22.9,15.6,33.9,32.8,33.9c14.5,0,24.3-5.2,31.1-15.2h0.4v12.7h35.1V48.4z"/>
	<path class="st3" d="M529,148.4h36.4V94.3c0-10.4,3.1-17.9,12.3-17.9c11,0,12,8.5,12,17.9v54.2h36.4V94.3
		c0-10.4,3.1-17.9,12.3-17.9c11,0,12,8.5,12,17.9v54.2h36.4V79.8c0-16.2-8.3-33.9-32.7-33.9c-23.7,0-31.1,14.5-32.6,15.6
		c-4.4-10-15.5-15.6-25.8-15.6c-13.2,0-23.9,4.2-31.3,15.8h-0.4V48.4H529V148.4z"/>
	<path class="st3" d="M241.9,180.8V48.4H277v11h0.4c4.6-6.4,10.1-13.5,28-13.5c26,0,39.1,25.8,40.1,50.1V48.4h35v16h0.4
		c5.9-11.9,13.6-18.5,26.9-18.5c3.7,0,7.2,0.6,10.7,1.5v33.7c-3.7-1.3-7-2.5-14.4-2.5c-14.4,0-22.1,8.9-22.1,30.3v39.5h-36.4v-46.2
		c-0.8,22.8-10.1,48.7-40.6,48.7c-10.9,0-20.6-5-26.1-13.5h-0.4v43.4H241.9z M276.9,98.5c0,11.8,2.9,24.7,16,24.7s16-12.9,16-24.7
		c0-11.9-2.9-24.9-16-24.9S276.9,86.6,276.9,98.5"/>
</g>
</svg>
