<?xml version="1.0" encoding="UTF-8" standalone="no"?>
<!-- Created with Inkscape (http://www.inkscape.org/) -->

<svg
   width="1000"
   height="236.002"
   viewBox="0 0 264.58333 62.442195"
   version="1.1"
   id="svg3820"
   xml:space="preserve"
   sodipodi:docname="Los Héroes Logo.svg"
   inkscape:version="1.2.2 (732a01da63, 2022-12-09)"
   xmlns:inkscape="http://www.inkscape.org/namespaces/inkscape"
   xmlns:sodipodi="http://sodipodi.sourceforge.net/DTD/sodipodi-0.dtd"
   xmlns="http://www.w3.org/2000/svg"
   xmlns:svg="http://www.w3.org/2000/svg"
   xmlns:rdf="http://www.w3.org/1999/02/22-rdf-syntax-ns#"
   xmlns:cc="http://creativecommons.org/ns#"
   xmlns:dc="http://purl.org/dc/elements/1.1/"><title
     id="title894">Caja Los Héroes</title><sodipodi:namedview
     id="namedview3822"
     pagecolor="#ffffff"
     bordercolor="#666666"
     borderopacity="1.0"
     inkscape:showpageshadow="2"
     inkscape:pageopacity="0.0"
     inkscape:pagecheckerboard="0"
     inkscape:deskcolor="#d1d1d1"
     inkscape:document-units="px"
     showgrid="false"
     inkscape:zoom="0.8"
     inkscape:cx="500"
     inkscape:cy="117.5"
     inkscape:window-width="1366"
     inkscape:window-height="705"
     inkscape:window-x="-8"
     inkscape:window-y="-8"
     inkscape:window-maximized="1"
     inkscape:current-layer="layer1" /><defs
     id="defs3817"><clipPath
       clipPathUnits="userSpaceOnUse"
       id="clipPath3840"><path
         d="M 0,540 H 959.811 V 0 H 0 Z"
         id="path3838" /></clipPath></defs><g
     inkscape:label="Capa 1"
     inkscape:groupmode="layer"
     id="layer1"
     transform="translate(-256.81566,-237.95218)"><g
       id="g3832"
       transform="matrix(0.35277777,0,0,-0.35277777,-203.51956,348.9913)"><g
         id="g3834"><g
           id="g3836"
           clip-path="url(#clipPath3840)" /></g></g><g
       id="g822"><g
         id="g801"
         style="fill:#000000"><path
           d="m 513.58699,275.96678 -0.28925,-0.48819 c -0.24187,-0.43983 -0.3067,-0.50033 -0.50799,-0.5751 v -0.0156 c 0.40354,-0.0408 0.64545,-0.29579 0.64545,-0.66963 0,-0.38045 -0.24187,-0.66633 -0.7565,-0.66633 h -1.20076 v 2.41575 h 0.49812 v -0.99949 h 0.0901 c 0.20883,0 0.29237,0.028 0.39694,0.12529 0.0944,0.0966 0.23875,0.30234 0.32659,0.47393 l 0.19137,0.40024 z m -1.61087,-1.37554 v -0.66636 h 0.44313 c 0.31998,0 0.49811,0.11439 0.49811,0.32989 0,0.16488 -0.10442,0.33647 -0.44095,0.33647 z m 0.53439,-1.67246 c 1.01271,0 1.83298,0.81478 1.83298,1.81979 0,1.01929 -0.82027,1.83738 -1.83298,1.83738 -1.0028,0 -1.81649,-0.81809 -1.81649,-1.83738 0,-1.00501 0.81369,-1.81979 1.81649,-1.81979 m 0,-0.44092 c -1.25131,0 -2.26732,1.00941 -2.26732,2.26071 0,1.26559 1.01601,2.2739 2.26732,2.2739 1.25461,0 2.27389,-1.00831 2.27389,-2.2739 0,-1.2513 -1.01928,-2.26071 -2.27389,-2.26071"
           style="fill:#000000;fill-opacity:1;fill-rule:nonzero;stroke:none;stroke-width:0.352776"
           id="path4193" /><path
           d="m 321.4322,252.3933 h 3.35698 v 20.38933 h 10.55258 v 3.04361 H 321.4322 Z"
           style="fill:#000000;fill-opacity:1;fill-rule:nonzero;stroke:none;stroke-width:0.352779"
           id="path3846"
           clip-path="none" /><g
           id="g3850"
           clip-path="none"
           transform="matrix(1.0995698,0,0,-1.0995698,-437.87165,546.5985)"
           style="fill:#000000;stroke-width:0.320833"><g
             id="g3856"
             transform="translate(716.3269,267.8662)"
             style="fill:#000000;stroke-width:0.320833"><path
               d="m 0,0 c 3.286,0 6.03,-1.046 8.217,-3.13 2.188,-2.083 3.286,-4.696 3.286,-7.835 0,-3.148 -1.104,-5.748 -3.313,-7.807 -2.212,-2.056 -4.999,-3.093 -8.361,-3.093 -3.216,0 -5.893,1.037 -8.031,3.093 -2.139,2.059 -3.209,4.641 -3.209,7.746 0,3.176 1.08,5.813 3.233,7.896 C -6.021,-1.046 -3.304,0 0,0 m 0.113,-2.897 c -2.435,0 -4.439,-0.762 -6.008,-2.289 -1.576,-1.526 -2.353,-3.472 -2.353,-5.84 0,-2.297 0.783,-4.216 2.365,-5.739 1.572,-1.515 3.546,-2.286 5.911,-2.286 2.37,0 4.356,0.778 5.95,2.332 1.591,1.56 2.38,3.497 2.38,5.806 0,2.264 -0.789,4.161 -2.38,5.7 -1.594,1.551 -3.549,2.316 -5.865,2.316"
               style="fill:#000000;fill-opacity:1;fill-rule:nonzero;stroke:none;stroke-width:0.320833"
               id="path3858" /></g><g
             id="g3860"
             transform="translate(736.8575,255.1832)"
             style="fill:#000000;stroke-width:0.320833"><path
               d="m 0,0 -2.319,1.401 c -1.45,0.893 -2.484,1.762 -3.099,2.622 -0.621,0.869 -0.924,1.851 -0.924,2.974 0,1.676 0.587,3.041 1.747,4.087 1.169,1.046 2.68,1.576 4.54,1.576 1.774,0 3.414,-0.496 4.892,-1.509 V 7.688 c -1.53,1.478 -3.188,2.221 -4.956,2.221 -0.992,0 -1.815,-0.235 -2.46,-0.694 -0.636,-0.462 -0.955,-1.05 -0.955,-1.778 0,-0.633 0.233,-1.23 0.704,-1.783 C -2.356,5.1 -1.594,4.512 -0.551,3.901 L 1.781,2.524 c 2.597,-1.56 3.903,-3.537 3.903,-5.938 0,-1.704 -0.575,-3.09 -1.722,-4.158 -1.141,-1.074 -2.631,-1.609 -4.458,-1.609 -2.104,0 -4.026,0.649 -5.745,1.946 v 3.867 c 1.643,-2.081 3.546,-3.124 5.721,-3.124 0.948,0 1.744,0.266 2.371,0.796 0.639,0.532 0.964,1.202 0.964,1.997 0,1.303 -0.94,2.53 -2.815,3.699"
               style="fill:#000000;fill-opacity:1;fill-rule:nonzero;stroke:none;stroke-width:0.320833"
               id="path3862" /></g></g><path
           d="m 408.35627,252.3933 h 3.36029 v 23.43294 h -3.36029 v -10.19192 h -13.16294 v 10.19192 h -3.35372 V 252.3933 h 3.35372 v 10.13585 h 13.16294 z"
           style="fill:#000000;fill-opacity:1;fill-rule:nonzero;stroke:none;stroke-width:0.352779"
           id="path3866"
           clip-path="none" /><path
           d="m 416.88421,252.3933 h 13.2806 v 2.98424 h -9.92692 v 7.15161 h 9.59375 v 3.00073 h -9.59375 v 7.27585 h 10.2502 v 2.99081 h -13.60388 z"
           style="fill:#000000;fill-opacity:1;fill-rule:nonzero;stroke:none;stroke-width:0.352779"
           id="path3870"
           clip-path="none" /><g
           id="g3874"
           clip-path="none"
           transform="matrix(1.0995698,0,0,-1.0995698,-437.87165,546.5985)"
           style="fill:#000000;stroke-width:0.320833"><g
             id="g3880"
             transform="translate(793.0724,246.252)"
             style="fill:#000000;stroke-width:0.320833"><path
               d="m 0,0 v 21.308 h 5.329 c 2.154,0 3.873,-0.526 5.137,-1.597 1.263,-1.067 1.9,-2.524 1.9,-4.335 0,-1.242 -0.309,-2.313 -0.93,-3.218 C 10.815,11.246 9.931,10.579 8.765,10.123 9.441,9.68 10.111,9.074 10.76,8.291 11.414,7.529 12.326,6.174 13.51,4.256 14.247,3.038 14.85,2.132 15.291,1.521 L 16.426,0 h -3.635 l -0.93,1.398 C 11.824,1.444 11.766,1.536 11.674,1.664 L 11.084,2.506 10.145,4.063 9.12,5.715 C 8.496,6.593 7.911,7.297 7.385,7.814 6.865,8.324 6.394,8.695 5.972,8.93 5.553,9.163 4.846,9.273 3.836,9.273 H 3.047 V 0 Z M 3.962,18.717 H 3.047 V 11.983 H 4.2 c 1.548,0 2.613,0.135 3.185,0.398 0.572,0.272 1.022,0.664 1.343,1.209 0.321,0.526 0.481,1.141 0.481,1.817 0,0.67 -0.181,1.279 -0.533,1.82 -0.367,0.542 -0.859,0.936 -1.508,1.153 -0.642,0.224 -1.713,0.337 -3.206,0.337"
               style="fill:#000000;fill-opacity:1;fill-rule:nonzero;stroke:none;stroke-width:0.320833"
               id="path3882" /></g><g
             id="g3884"
             transform="translate(820.4278,267.8662)"
             style="fill:#000000;stroke-width:0.320833"><path
               d="m 0,0 c 3.292,0 6.03,-1.046 8.227,-3.13 2.187,-2.083 3.285,-4.696 3.285,-7.841 0,-3.142 -1.11,-5.742 -3.316,-7.801 -2.212,-2.056 -5.005,-3.093 -8.373,-3.093 -3.207,0 -5.877,1.037 -8.016,3.093 -2.145,2.059 -3.215,4.641 -3.215,7.746 0,3.176 1.077,5.813 3.239,7.896 C -6.018,-1.046 -3.292,0 0,0 m 0.113,-2.897 c -2.438,0 -4.433,-0.762 -6.005,-2.295 -1.573,-1.52 -2.353,-3.466 -2.353,-5.834 0,-2.297 0.786,-4.216 2.359,-5.739 1.578,-1.515 3.549,-2.286 5.917,-2.286 2.377,0 4.356,0.778 5.95,2.332 1.591,1.56 2.38,3.497 2.38,5.806 0,2.264 -0.789,4.161 -2.38,5.7 -1.594,1.536 -3.543,2.316 -5.868,2.316"
               style="fill:#000000;fill-opacity:1;fill-rule:nonzero;stroke:none;stroke-width:0.320833"
               id="path3886" /></g></g><path
           d="m 481.02935,252.39826 h 13.27403 v 2.97654 h -9.91374 v 7.156 h 9.58715 v 2.99742 h -9.58715 v 7.27916 h 10.2436 v 2.98754 h -13.60389 z"
           style="fill:#000000;fill-opacity:1;fill-rule:nonzero;stroke:none;stroke-width:0.352779"
           id="path3890"
           clip-path="none" /><path
           d="m 504.0152,266.00676 -2.5565,-1.54049 c -1.60096,-0.98192 -2.73791,-1.93746 -3.41415,-2.88306 -0.68615,-0.95555 -1.01601,-2.03533 -1.01601,-3.27015 0,-1.84286 0.63887,-3.34377 1.92094,-4.47745 1.28762,-1.16662 2.93586,-1.74502 4.99865,-1.74502 1.95064,0 3.75065,0.541 5.37582,1.65488 v 3.80778 c -1.68237,-1.62514 -3.50213,-2.44211 -5.4506,-2.44211 -1.09296,0 -1.99462,0.25839 -2.69723,0.76308 -0.71034,0.50802 -1.06329,1.15455 -1.06329,1.95503 0,0.69604 0.26275,1.35249 0.78071,1.96053 0.52448,0.60916 1.35245,1.25573 2.50592,1.92755 l 2.55978,1.51412 c 2.86,1.71532 4.28943,3.88916 4.28943,6.52923 0,1.88027 -0.62895,3.39769 -1.89454,4.57201 -1.24033,1.18096 -2.882,1.76921 -4.90411,1.76921 -2.3113,0 -4.41695,-0.71361 -6.317,-2.13974 v -4.25203 c 1.80876,2.2882 3.90895,3.43503 6.28623,3.43503 1.05669,0 1.92755,-0.29237 2.62795,-0.87526 0.69603,-0.58497 1.05229,-1.32168 1.05229,-2.19585 0,-1.43271 -1.02919,-2.78188 -3.08429,-4.06729"
           style="fill:#000000;fill-opacity:1;fill-rule:nonzero;stroke:none;stroke-width:0.352779"
           id="path3902"
           clip-path="none" /></g><path
         d="m 279.56332,266.92821 c 1.75272,3.44164 5.97068,4.80073 9.40902,3.0337 3.43836,-1.7516 4.81064,-5.96405 3.048,-9.4123 -1.7626,-3.43066 -5.97174,-4.79963 -9.41559,-3.02712 -3.44498,1.75272 -4.79743,5.97396 -3.04143,9.40572"
         style="font-variation-settings:normal;vector-effect:none;fill:#ff4500;fill-opacity:1;fill-rule:nonzero;stroke:none;stroke-width:0.352779;stroke-linecap:butt;stroke-linejoin:miter;stroke-miterlimit:4;stroke-dasharray:none;stroke-dashoffset:0;stroke-opacity:1;-inkscape-stroke:none;stop-color:#000000"
         id="path3906"
         clip-path="none" /><path
         d="m 310.3779,258.84362 c -4.06072,-8.77676 -12.62198,-14.02392 -21.67362,-14.27683 -1.3118,0.009 -4.52472,0.31013 -4.58522,0.32328 -0.18483,0.006 -0.37715,0.0835 -0.50469,0.23845 -0.26275,0.29922 -0.23844,0.74992 0.0539,1.02919 0.13746,0.10785 0.30577,0.17486 0.47062,0.17486 0.0639,0.0125 2.87976,-0.12436 2.87976,-0.12436 l 0.0187,0.5179 -4.70616,0.2693 c -0.20135,0 -0.41343,0.0979 -0.55418,0.25964 -0.26619,0.28582 -0.24312,0.75319 0.0573,1.01928 0.15397,0.14089 0.38266,0.18483 0.55418,0.18483 0.0714,0.009 4.59841,-0.19574 4.59841,-0.19574 l 0.0218,0.50142 -5.64849,0.32328 c -0.21226,0 -0.45413,0.077 -0.60917,0.24187 -0.27148,0.30359 -0.2453,0.76751 0.0439,1.0325 0.16177,0.1253 0.35296,0.1892 0.52451,0.18265 0.21226,-0.006 5.74303,-0.29361 5.74303,-0.29361 l 0.0312,0.53882 -5.07891,0.27584 c -0.1892,0 -0.37054,0.077 -0.51791,0.22224 -0.15834,0.18795 -0.21226,0.45413 -0.15179,0.67293 0.0736,0.39697 0.45743,0.58168 0.86098,0.54761 l 5.60451,-0.30888 v 0.47062 l -2.18045,0.14836 c -0.98852,0.13746 -1.25131,0.69934 -1.3052,1.56359 0,0 1.90445,-0.52778 4.69628,-0.33977 0.20883,0.0125 0.39033,0.034 0.55528,0.034 5.14047,0.53439 9.88952,3.70006 12.20742,8.73278 3.51863,7.59583 0.20572,16.60461 -7.39021,20.10345 -7.60244,3.50762 -16.58812,0.19137 -20.09574,-7.39791 -2.42566,-5.22407 -1.59217,-11.12764 1.63396,-15.43687 0.10442,-0.14182 0.21226,-0.27273 0.32329,-0.42443 1.74281,-2.19915 3.40096,-3.26572 3.40096,-3.26572 -0.68615,-0.5487 -1.25791,-0.72022 -2.0386,-0.067 l -1.56359,1.513 -0.33316,-0.32986 3.96942,-3.94527 c 0.27927,-0.2693 0.40354,-0.68612 0.16831,-1.0061 -0.13184,-0.19449 -0.36065,-0.31998 -0.61244,-0.31998 -0.20571,0 -0.38375,0.0779 -0.51129,0.21226 l -3.60331,3.59667 -0.37275,-0.38375 c 0,0 3.91226,-3.91556 4.0431,-4.06729 0.13746,-0.13403 0.21881,-0.32659 0.21881,-0.5113 0,-0.40024 -0.32325,-0.73343 -0.7301,-0.73343 -0.2319,0 -0.44752,0.13839 -0.59598,0.29236 l -4.00901,3.98376 -0.36396,-0.34307 c 0,0 3.18655,-3.23384 3.22283,-3.30091 0.11439,-0.13091 0.24188,-0.31559 0.24188,-0.52779 0,-0.40024 -0.33208,-0.71364 -0.72901,-0.71364 -0.21881,0 -0.42773,0.0848 -0.55858,0.22878 l -3.3405,3.32731 -0.37717,-0.36287 c 0,0 1.97483,-2.00562 2.00562,-2.05178 0.11782,-0.13185 0.18141,-0.29362 0.18141,-0.47502 0,-0.41015 -0.32329,-0.73013 -0.71031,-0.73013 -0.20883,0 -0.40024,0.0848 -0.52451,0.21881 -0.0439,0.0281 -2.81599,2.61697 -3.52851,3.46473 -0.0979,0.10785 -0.17798,0.20229 -0.26618,0.3067 h -0.003 c -5.71887,7.05375 -7.30334,17.01477 -3.22614,25.8212 5.69908,12.3394 20.31456,17.71849 32.65392,12.02272 12.34267,-5.70129 17.71407,-20.32777 12.01611,-32.66383"
         style="font-variation-settings:normal;vector-effect:none;fill:#2f5bb2;fill-opacity:1;fill-rule:nonzero;stroke:none;stroke-width:0.352779;stroke-linecap:butt;stroke-linejoin:miter;stroke-miterlimit:4;stroke-dasharray:none;stroke-dashoffset:0;stroke-opacity:1;-inkscape-stroke:none;stop-color:#000000"
         id="path3910"
         clip-path="none" /></g></g><metadata
     id="metadata892"><rdf:RDF><cc:Work
         rdf:about=""><dc:title>Caja Los Héroes</dc:title><dc:subject><rdf:Bag><rdf:li>Caja Los Héroes</rdf:li><rdf:li>Caja de Compensación de Asignación Familiar</rdf:li><rdf:li>Logo</rdf:li><rdf:li>Logotipo</rdf:li><rdf:li>SVG</rdf:li><rdf:li>Vector</rdf:li><rdf:li>HQ</rdf:li></rdf:Bag></dc:subject></cc:Work></rdf:RDF></metadata></svg>
