<?xml version="1.0" encoding="utf-8"?>
<!-- Generator: Adobe Illustrator 22.0.1, SVG Export Plug-In . SVG Version: 6.00 Build 0)  -->
<svg version="1.1" id="Capa_1" xmlns="http://www.w3.org/2000/svg" xmlns:xlink="http://www.w3.org/1999/xlink" x="0px" y="0px"
	 viewBox="0 0 500 417" style="enable-background:new 0 0 500 417;" xml:space="preserve">
<style type="text/css">
	.st0{fill:#FFFFFF;}
</style>
<g>
	<path class="st0" d="M150.5,171.1c9.7-0.7,18.8-2.9,27.3-6.5c8.4-3.6,15.4-8.7,20.8-15.5c5.4-6.8,8.2-15.8,8.2-27
		c0-16.9-5.6-29.8-16.9-38.8c-11.3-9-24.2-13.5-38.8-13.5c-20.3,0-35.5,6.7-45.9,20c-10.3,13.3-15.3,30.1-14.9,50.4H14.4
		c0.7-20.3,4.4-38.7,11-55.4c6.6-16.7,15.8-31,27.6-43c11.8-12,26-21.3,42.5-27.9C111.9,7.3,130.2,4,150.5,4c15.8,0,31.5,2.3,47.3,7
		c15.8,4.7,29.9,11.7,42.5,21.1c12.6,9.4,22.8,20.8,30.7,34.3c7.9,13.5,11.8,29.1,11.8,46.7c0,19.1-4.6,36-13.8,50.6
		c-9.2,14.6-23,24.6-41.3,29.8v1.1c21.7,4.9,38.8,15.4,51.2,31.5c12.4,16.1,18.6,35.4,18.6,57.9c0,20.6-4,39-12.1,55.1
		c-8.1,16.1-18.8,29.6-32.3,40.5c-13.5,10.9-29.1,19.1-46.7,24.8c-17.6,5.6-36,8.4-55.1,8.4c-22.1,0-42.3-3.2-60.5-9.6
		c-18.2-6.4-33.7-15.7-46.4-27.8c-12.8-12.2-22.6-27.1-29.5-44.7C7.7,313.2,4.4,293,4.8,270.1h76c0.4,10.5,2.1,20.5,5.1,30.1
		c3,9.6,7.3,17.8,12.9,24.8c5.6,6.9,12.7,12.5,21.1,16.6c8.4,4.1,18.5,6.2,30.1,6.2c18,0,33.2-5.5,45.6-16.6
		c12.4-11.1,18.6-26.2,18.6-45.3c0-15-2.9-26.4-8.7-34.3c-5.8-7.9-13.2-13.6-22.2-17.2c-9-3.6-18.8-5.6-29.5-6.2
		c-10.7-0.6-20.9-0.8-30.7-0.8v-56.3C131.6,171.8,140.7,171.8,150.5,171.1"/>
	<rect x="291.2" y="41.5" transform="matrix(0.707 -0.7072 0.7072 0.707 63.0581 255.1692)" class="st0" width="96.7" height="20"/>
	<rect x="329.5" y="3.1" transform="matrix(0.7072 -0.707 0.707 0.7072 63.0206 255.1184)" class="st0" width="20" height="96.7"/>
	<path class="st0" d="M404.7,5.5h90.6v89.4h-90.6V5.5z M495.2,407.2h-90.6V114.6h90.6V407.2z"/>
</g>
</svg>
