<svg version="1.1" id="Layer_1" xmlns="http://www.w3.org/2000/svg" xmlns:xlink="http://www.w3.org/1999/xlink" x="0px" y="0px"
	 viewBox="0 0 1500 500" style="enable-background:new 0 0 1500 500;" xml:space="preserve">
	<style type="text/css">
		.st0{fill:#033E84;}
		.st1{fill:#D84141;}
	</style>
	<g>
		<path class="st0" d="M1364.2,283.8h33.1c0-6.8-2.9-18.2-15.8-18.2C1369.7,265.6,1365,276.3,1364.2,283.8z M1422.3,302.9h-57.9
			c0.9,11.6,12.3,17.1,25.4,17.1c9.5,0,17.3-1.3,24.8-3.7l3.7,18.9c-9.2,3.7-20.4,5.7-32.5,5.7c-30.5,0-47.9-17.8-47.9-45.9
			c0-22.8,14.1-48,45.4-48c29,0,40.1,22.6,40.1,44.8C1423.2,296.7,1422.6,300.9,1422.3,302.9z M615.8,313.6l4.2,21.9
			c-5.2,2.6-16.7,5.5-31.8,5.5c-42.8,0-64.8-26.8-64.8-62.1c0-42.3,30.1-65.8,67.6-65.8c14.5,0,25.5,2.9,30.5,5.5l-5.7,22.2
			c-5.7-2.4-13.6-4.6-23.5-4.6c-22.3,0-39.5,13.4-39.5,41c0,24.8,14.7,40.4,39.7,40.4C601,317.6,610.3,315.8,615.8,313.6z
			M636.8,338.9v-60.2c0-13.2-0.4-21.9-0.7-29.6h24.1l0.9,16.5c5.3-13,16.3-18.6,25-18.6c2.6,0,3.9,0,5.9,0.4v26.5
			c-2-0.5-4.4-0.9-7.5-0.9c-10.3,0-17.3,5.5-19.1,14.1c-0.4,1.8-0.5,4-0.5,6.2v45.5H636.8z M734.5,338.9h-27.9v-89.8h27.9V338.9z
			M720.6,210c9,0,14.7,6.1,14.9,14.2c0,7.7-5.9,14-15,14c-8.8,0-14.7-6.2-14.5-14C705.7,216,711.6,210,720.6,210z M751.8,334.5
			l4.9-20c5.2,3.1,15.8,6.8,24.1,6.8c8.4,0,11.9-2.9,11.9-7.5c0-4.6-2.8-6.8-13.2-10.3c-18.5-6.2-25.7-16.3-25.5-26.8
			c0-16.9,14.3-29.6,36.6-29.6c10.5,0,19.8,2.4,25.4,5.2l-5,19.3c-4-2.2-11.7-5.1-19.5-5.1c-6.8,0-10.7,2.7-10.7,7.3
			c0,4.2,3.5,6.4,14.5,10.3c17.1,5.9,24.2,14.5,24.4,27.8c0,16.7-13.2,29.2-38.9,29.2C769.1,341,758.6,338.2,751.8,334.5z
			M840.5,232.2l27.4-7.5v24.4h20v20.6h-20v32.5c0,10.8,2.6,15.8,11,15.8c3.9,0,5.5-0.2,8.2-0.7l0.2,21.1c-3.7,1.5-10.3,2.6-18.2,2.6
			c-9,0-16.5-3.3-20.9-7.9c-5.1-5.3-7.7-13.9-7.7-26.6v-36.7h-11.9v-20.6h11.9V232.2z M979,285.8v31.2c0,8.6,0.4,16.9,1.3,21.9h-25.2
			l-1.6-9c-6.4,7.2-15.6,11-26.3,11c-18.2,0-29-13.2-29-27.6c0-23.3,20.9-34.5,52.7-34.3v-1.3c0-4.8-2.6-11.6-16.4-11.6
			c-9.2,0-18.9,3.1-24.8,6.8l-5.2-18c6.3-3.5,18.6-7.9,34.9-7.9C969.5,247.1,979,264.7,979,285.8z M951.8,306.2v-9.7
			c-14.7-0.2-26.1,3.3-26.1,14.1c0,7.2,4.8,10.7,11,10.7c7,0,12.7-4.6,14.5-10.3C951.6,309.5,951.8,307.9,951.8,306.2z M1001.1,338.9
			V208.3h27.9v130.6H1001.1z M1115.7,316l3.3,20.8c-5,2.2-14.3,4.2-25,4.2c-29,0-47.6-17.8-47.6-46.1c0-26.3,18-47.8,51.4-47.8
			c7.4,0,15.4,1.3,21.3,3.5l-4.4,20.7c-3.3-1.5-8.3-2.7-15.6-2.7c-14.7,0-24.3,10.5-24.1,25.2c0,16.5,11,25.2,24.6,25.2
			C1106.3,318.9,1111.5,317.8,1115.7,316z M1134.4,338.9V208.3h27.9v51.4c3.3-3.9,7-7,11.4-9.2c4.2-2.2,9.4-3.5,14.5-3.5
			c17.8,0,31.4,12.3,31.4,39.3v52.5h-27.9v-49.4c0-11.7-4.1-19.8-14.5-19.8c-7.3,0-11.9,4.8-14,9.7c-0.7,1.8-0.9,4.2-0.9,6.3v53.3
			H1134.4z M1270,338.9h-27.9v-89.8h27.9V338.9z M1256,210c9,0,14.7,6.1,14.9,14.2c0,7.7-5.9,14-15.1,14c-8.8,0-14.7-6.2-14.5-14
			C1241.2,216,1247,210,1256,210z M1292.4,338.9V208.3h27.9v130.6H1292.4z"/>
		<path class="st1" d="M347.9,330.3c11.7,5.6,24.9,8.6,38.7,8.6c42.1,0,76.5-29,86.2-68.1h-75.3C390.8,297.3,372.3,319,347.9,330.3z"
			/>
		<path class="st1" d="M347.9,167.6c11.7-5.6,24.9-8.6,38.7-8.6c42.1,0,76.5,29,86.2,68.1h-75.3C390.8,200.6,372.3,178.9,347.9,167.6
			z"/>
		<g>
			<path class="st0" d="M204.4,330.3c11.7,5.6,24.9,8.6,38.7,8.6c42.1,0,76.3-29,86.1-68.1h-76.4C246.2,297.3,228.7,319,204.4,330.3z
				"/>
			<path class="st0" d="M204.4,167.6c11.7-5.6,24.9-8.6,38.7-8.6c42.1,0,76.3,29,86.1,68.1h-76.4
				C246.2,200.6,228.7,178.9,204.4,167.6z"/>
		</g>
		<g>
			<path class="st1" d="M314.3,302.6c-9.6,13.1-22.6,23.5-37.8,29.7c10.4,4.2,21.8,6.5,33.7,6.5c13.5,0,26.2-3.2,37.7-8.6
				C334.5,323.9,323,314.4,314.3,302.6z"/>
			<path class="st1" d="M314.3,195.3c8.8-11.9,20.3-21.6,33.8-27.9c-11.5-5.3-24.3-8.3-37.8-8.3c-11.9,0-23.3,2.3-33.7,6.5
				C291.7,171.8,304.7,182.2,314.3,195.3z"/>
			<path class="st1" d="M252.8,227.1c-2.9-11.7-7.9-22.5-14.7-31.8c-11.1,15-17.7,33.5-17.7,53.6c0,20.1,6.6,38.7,17.7,53.6
				c6.8-9.3,11.8-20.1,14.7-31.8h46.5c-1.7-7-2.7-14.3-2.7-21.8c0-7.5,0.9-14.8,2.7-21.8H252.8z"/>
		</g>
		<path class="st0" d="M204.4,330.3c-11.5,5.3-24.2,8.6-37.7,8.6c-49.7,0-89.9-40.3-89.9-89.9c0-49.7,40.2-89.9,89.9-89.9
			c13.5,0,26.3,3,37.8,8.3c-30.4,14.4-51.4,45.7-51.4,81.6C153.2,284.8,174,315.9,204.4,330.3z"/>
	</g>
</svg>
