<svg xmlns="http://www.w3.org/2000/svg" viewBox="0 0 165.67 46.01"><defs><style>.cls-1{fill:#e20613;}.cls-1,.cls-2{fill-rule:evenodd;}.cls-2,.cls-3{fill:#3e434d;}</style></defs><g id="Calque_2" data-name="Calque 2"><g id="Calque_1-2" data-name="Calque 1"><polygon class="cls-1" points="20.91 0 31.31 5.86 41.68 0 41.71 11.69 52.21 17.57 41.78 23.5 41.74 35.22 31.31 29.39 20.91 35.19 20.93 23.54 31.21 17.57 20.97 11.78 20.91 0"/><polygon class="cls-2" points="57.63 32.2 80.3 32.2 80.3 26.9 64.12 26.9 64.12 19.64 78.65 19.68 78.64 14.68 64.2 14.68 64.2 8.36 79.89 8.36 79.89 3.02 57.63 3.02 57.51 14.62 62.71 17.6 57.6 20.45 57.63 32.2"/><path class="cls-2" d="M81.59,32.28h5.83l.16-12.47c0-3.13,1.56-4.71,4.76-4.71,2.83,0,3.57,2,3.66,5.35V32.32l5.93,0V17.69c0-4.75-3-7.31-8-7.21A7.33,7.33,0,0,0,87.37,14l-.15,0V11.09H81.59Z"/><path class="cls-2" d="M117.4,24.78c0,2.21-1.93,4.24-4.91,4.16-1.69,0-3.51-.58-3.51-2.67,0-2.47,2-2.9,4-3.23s3-.19,4.43-1.14Zm5.95-8.22c0-4.48-4-6.07-9.61-6.14-4.81-.06-9.71,1.67-10,7.14h5.91c.21-2.3,1.47-3.16,4.17-3.16,1.94,0,3.6.34,3.62,2.77S114.49,19.33,111,20c-4,.45-8,1.4-8,6.7,0,4.15,3.32,6.16,7.24,6.16a10.87,10.87,0,0,0,7.36-2.52,7.55,7.55,0,0,0,.48,2c.8,0,5.94,0,6-.05a13.31,13.31,0,0,1-.65-4.6Z"/><path class="cls-2" d="M146,23c.52-6.47-3.22-12.68-10.93-12.67-6.49,0-10.54,5.18-10.54,11.21,0,6.54,4.15,11.25,11,11.25,4.76,0,9.05-2.46,10.11-7.1l-5.14,0c-1.11,2-2.62,2.62-5.4,2.68s-4.7-2-4.7-5.34ZM130.4,19.36a4.79,4.79,0,0,1,9.56,0Z"/><polygon class="cls-2" points="143.08 32.23 149.78 32.23 154.26 25.57 158.74 32.23 165.67 32.22 157.7 21.07 164.74 11.07 158.18 11.07 154.33 16.63 150.56 11.07 143.72 11.07 150.84 21.01 143.08 32.23"/><polygon class="cls-1" points="0 17.6 10.48 11.72 20.89 17.56 10.48 23.52 0 17.6"/><path class="cls-3" d="M80.93,45.05l.76-.91a2.67,2.67,0,0,0,1.75.71c.52,0,.84-.21.84-.55h0c0-.33-.2-.5-1.18-.75-1.18-.3-1.94-.62-1.94-1.79h0a1.84,1.84,0,0,1,2-1.77,3.36,3.36,0,0,1,2.17.75l-.67,1a2.7,2.7,0,0,0-1.52-.58c-.49,0-.75.23-.75.51v0c0,.38.25.51,1.26.77,1.19.3,1.86.73,1.86,1.75v0c0,1.16-.89,1.81-2.15,1.81a3.69,3.69,0,0,1-2.48-.94"/><polygon class="cls-3" points="88.12 41.24 86.34 41.24 86.34 40.06 91.19 40.06 91.19 41.24 89.41 41.24 89.41 45.91 88.12 45.91 88.12 41.24"/><path class="cls-3" d="M92.38,40.06h2.68a2.34,2.34,0,0,1,1.7.59,1.83,1.83,0,0,1,.5,1.34h0A1.83,1.83,0,0,1,96,43.82l1.43,2.09H95.93L94.68,44h-1v1.88H92.38ZM95,42.9c.63,0,1-.34,1-.83v0c0-.55-.39-.83-1-.83H93.67V42.9Z"/><path class="cls-3" d="M98.37,43v0a3.11,3.11,0,0,1,6.22,0h0a3.11,3.11,0,0,1-6.22,0m4.87,0v0a1.78,1.78,0,0,0-1.77-1.84A1.75,1.75,0,0,0,99.72,43h0a1.78,1.78,0,0,0,1.77,1.84A1.75,1.75,0,0,0,103.24,43"/><polygon class="cls-3" points="105.94 40.06 107.13 40.06 109.87 43.66 109.87 40.06 111.14 40.06 111.14 45.91 110.04 45.91 107.21 42.19 107.21 45.91 105.94 45.91 105.94 40.06"/><path class="cls-3" d="M112.49,43v0a3,3,0,0,1,3.07-3,3.19,3.19,0,0,1,2.29.8l-.81,1a2.14,2.14,0,0,0-1.53-.6A1.76,1.76,0,0,0,113.84,43h0a1.75,1.75,0,0,0,1.77,1.86,2.1,2.1,0,0,0,1.21-.35v-.84h-1.3V42.54h2.54v2.54a3.8,3.8,0,0,1-2.5.93,2.93,2.93,0,0,1-3.07-3"/><polygon class="cls-3" points="119.51 40.06 123.92 40.06 123.92 41.2 120.79 41.2 120.79 42.39 123.54 42.39 123.54 43.53 120.79 43.53 120.79 44.76 123.96 44.76 123.96 45.91 119.51 45.91 119.51 40.06"/><path class="cls-3" d="M125.31,40.06H128a2.34,2.34,0,0,1,1.7.59,1.83,1.83,0,0,1,.5,1.34h0a1.83,1.83,0,0,1-1.25,1.82l1.43,2.09h-1.51L127.61,44h-1v1.88h-1.29Zm2.59,2.84c.63,0,1-.34,1-.83v0c0-.55-.39-.83-1-.83H126.6V42.9Z"/><path class="cls-3" d="M134.28,40.06H137a2.08,2.08,0,0,1,1.53.52,1.31,1.31,0,0,1,.4,1v0a1.36,1.36,0,0,1-.77,1.26,1.43,1.43,0,0,1,1.1,1.43v0c0,1.07-.87,1.61-2.19,1.61h-2.78Zm2.44,2.36c.56,0,.92-.18.92-.62h0c0-.39-.3-.6-.84-.6h-1.27v1.23Zm.34,2.36c.57,0,.91-.2.91-.64h0c0-.4-.29-.64-.95-.64h-1.49v1.29Z"/><path class="cls-3" d="M140.26,43v0a3.11,3.11,0,0,1,6.21,0h0a3,3,0,0,1-3.11,3,3,3,0,0,1-3.1-3m4.87,0v0a1.78,1.78,0,0,0-1.77-1.84A1.75,1.75,0,0,0,141.6,43h0a1.78,1.78,0,0,0,1.77,1.84A1.75,1.75,0,0,0,145.13,43"/><polygon class="cls-3" points="147.83 40.06 149.01 40.06 151.75 43.66 151.75 40.06 153.02 40.06 153.02 45.91 151.93 45.91 149.1 42.19 149.1 45.91 147.83 45.91 147.83 40.06"/><path class="cls-3" d="M154.64,40.06h2.28A2.91,2.91,0,0,1,160,43h0a2.93,2.93,0,0,1-3.1,2.93h-2.28Zm2.28,4.68A1.66,1.66,0,0,0,158.68,43v0a1.68,1.68,0,0,0-1.76-1.76h-1v3.52Z"/><path class="cls-3" d="M160.89,45.05l.76-.91a2.67,2.67,0,0,0,1.75.71c.52,0,.84-.21.84-.55h0c0-.33-.2-.5-1.18-.75-1.17-.3-1.93-.62-1.93-1.79h0a1.83,1.83,0,0,1,2-1.77,3.36,3.36,0,0,1,2.17.75l-.66,1a2.76,2.76,0,0,0-1.52-.58c-.5,0-.76.23-.76.51v0c0,.38.26.51,1.27.77,1.18.3,1.85.73,1.85,1.75v0c0,1.16-.89,1.81-2.15,1.81a3.71,3.71,0,0,1-2.48-.94"/></g></g></svg>