<?xml version="1.0" encoding="UTF-8"?>
<svg id="Capa_2" data-name="Capa 2" xmlns="http://www.w3.org/2000/svg" width="630.82006" height="265.77006" viewBox="0 0 630.82006 265.77006">
  <defs>
    <style>
      .cls-1 {
        isolation: isolate;
      }

      .cls-2 {
        fill: #a50932;
        stroke-width: 0px;
      }
    </style>
  </defs>
  <g id="Capa_2-2" data-name="Capa 2">
    <g id="Capa_1-2" data-name="Capa 1-2">
      <g>
        <g id="b">
          <g id="c">
            <g>
              <path class="cls-2" d="M555.42171,91.41444c0,4.92,2.65002,6.47,6.97998,5.73,27.64001-4.63,56.75-28.94,65.78998-55.2,14.70001-42.58-36.51001-56.31-48.59003-24.46-1.46002,3.84-5.96002,5.75-9.51001,3.69-12.23999-7.06-27.72998,4.5-28.87,19.05-1.35999,17.25,14.19,33.22,14.19,51.18999"/>
              <path class="cls-2" d="M47.31173,210.39443c-17.42,0-32.78-5.05-45.89-12.94-1.29-.78999-1.76-2.42-1.17-3.8l9.51-21.42999c.74-1.67999,2.8-2.35001,4.35-1.36,10.73,6.89999,23.57,11.63,33.18,11.63,8.95,0,12.79-3.08,12.79-7.42999,0-13.81-53.98-5.37-53.98-42.47,0-22.51,19.96-37.36,47.06-37.36,12.88,0,27.09,4.01,38.08,9.31,1.38.66,1.97,2.25,1.49,3.65l-7.24,21.34c-.57,1.74001-2.57,2.52-4.2,1.67999-10.37-5.18-21.32-8.36-29.91-8.36-7.41,0-11.52,3.08-11.52,6.89999,0,14.07001,56.03,5.39,56.03,45.04001,0,22-21.24,35.58-48.61,35.58"/>
              <path class="cls-2" d="M178.04172,205.34443v-8.78c0-2.59-3.06-3.92-5.00999-2.21001-11.2,9.84-23.44,16.03999-35.66,16.03999-23.04,0-35.32-15.09-35.32-36.60001v-66.87c0-5.3,4.33-9.63,9.63-9.63h18.88c5.32001,0,9.63,4.31,9.63,9.63v57.91999c0,10.75999,5.13,14.07001,12.53999,14.07001s15.34-3.10001,23.47-11.63c.53-.55.85001-1.31.85001-2.10001v-58.24001c0-5.3,4.33-9.63,9.63-9.63h25.5c1.64999,0,2.99001,1.36,2.99001,3.01v98.42c0,5.32001-4.28999,9.61-9.61,9.61h-24.48c-1.64999,0-3.00999-1.32001-3.00999-2.99001"/>
              <path class="cls-2" d="M267.05172,139.32444v59.41c0,5.32001-4.29001,9.61-9.60999,9.61h-18.88c-5.32001,0-9.61-4.28999-9.61-9.61v-91.8c0-5.32,4.31-9.63,9.63-9.63h17.86c5.32001,0,9.60999,4.31,9.60999,9.61h0c0,2.74,3.35001,4.01,5.20001,2.01,7.98001-8.64,16.67999-13.05,31.26999-13.6,1.72-.08,3.17999,1.27,3.17999,2.99v31.17c0,1.85001-1.67999,3.28999-3.51999,2.95-15.89001-2.92999-28.42999-2.14-34.45999,4.96001-.45001.55-.67999,1.23-.67999,1.92999"/>
              <path class="cls-2" d="M311.31173,205.34443V55.70443c0-5.3,4.32999-9.63,9.63-9.63h18.63c5.32001,0,9.60999,4.31,9.60999,9.61v143.04c0,5.32001-4.29001,9.61-9.60999,9.61h-25.25c-1.64999,0-3.01001-1.32001-3.01001-2.99001"/>
              <path class="cls-2" d="M425.94173,205.34443h0c0-2.46001-2.78-3.86-4.76999-2.39999-6.53,4.82001-14.17001,7.45-25.39999,7.45-21.51001,0-38.10999-12.53999-38.10999-34.53999,0-19.2,14.82999-34.27,40.64999-34.27,12.03,0,19.20001,2.55,26.61002,6.66v-2.82001c0-15.85001-9.45999-22-24.82001-22-6.56,0-14.38,1.19-22.85001,3.08-1.72.38-3.42001-.78-3.64999-2.53l-2.57001-20.5c-.20999-1.48.73999-2.88,2.17999-3.27,10.06-2.76,23.66-4.94,33.58002-4.94,37.89001,0,55.76001,17.65,55.76001,50.91999v52.55c0,5.28-4.32999,9.61-9.60999,9.61h-23.97c-1.64999,0-3.01001-1.34-3.01001-2.99001M424.94173,169.81443c0-.89-.35999-1.74001-1.06-2.28999-4.17999-3.46001-8.19-4.97-14.79001-4.97-8.44,0-15.87,5.37-15.87,13.05,0,8.19,5.66,13.3,14.57999,13.3,6.39001,0,10.73999-1.61,14.13-4.60001,1.98999-1.75999,3.03-4.37,3.03-7.02v-7.45l-.01999-.02Z"/>
              <path class="cls-2" d="M538.15175,97.29444h-16.82001c-5.32001,0-9.60999-4.31-9.60999-9.61v-20.07c0-2.59-3.04999-3.95-4.98999-2.25l-29.39001,28.56c-3.82001,3.8-3.48001,7.7-3.48001,7.7v64.23999c0,35.05,15.34,44.53,37.09,44.53,8.44,0,16.89001-1.44,25.52002-3.37,1.70001-.38,2.70001-2.14,2.19-3.8l-6.91998-22.56999c-.44-1.53-2.02002-2.39999-3.58002-2.03999-2.53003.64-4.91998,1.06-6.97998,1.06-5.90002,0-9.45999-3.33-9.45999-12.78999v-36.66c0-1.64999,1.31998-2.99,2.99002-2.99h23.44c1.65002,0,2.98999-1.34,2.98999-3.01v-23.93c0-1.66-1.35999-3.01-2.98999-3.01"/>
            </g>
          </g>
        </g>
        <g class="cls-1">
          <g class="cls-1">
            <path class="cls-2" d="M25.22634,257.21342c0,.52734-.13867,1.03906-.41553,1.53711-.27686.4707-.92773,1.02539-1.95166,1.66211-1.0249.63672-2.16016,1.23828-3.40576,1.80664-1.24609.56641-2.45068,1.05273-3.61377,1.45312-1.1626.40039-2.02148.60156-2.57471.60156-.38818,0-.84521-.08984-1.37061-.26953-.52637-.17969-1.05273-.4082-1.57861-.68555-.52588-.27539-1.00391-.5957-1.43262-.95508-.42969-.35938-.74121-.70508-.93457-1.03906-.11084-.19336-.21484-.58008-.31152-1.16211-.09717-.58203-.18018-1.25977-.24902-2.03516-.06982-.77539-.13184-1.59961-.18701-2.4707-.05566-.87305-.104-1.70312-.14551-2.49219s-.06934-1.48828-.08301-2.09766c-.01416-.60938-.02051-1.05273-.02051-1.33008,0-1.02344.03418-2.20117.10352-3.5293.06885-1.33008.20068-2.66406.39453-4.00781.19336-1.34375.47754-2.63086.85156-3.86328.37402-1.23047.87891-2.27734,1.51611-3.13477.19336-.25.58154-.51172,1.1626-.78906.58154-.27734,1.26709-.54102,2.05615-.78906.78906-.25,1.64062-.48438,2.5542-.70703.91357-.2207,1.79248-.4082,2.63721-.56055.84424-.15234,1.61279-.27734,2.30518-.37305.69189-.09766,1.21826-.14648,1.57812-.14648.41553,0,.81006.08984,1.18408.26953.37354.18164.69141.42383.95508.72852.2627.30469.4707.64258.62305,1.01758.15186.37305.22852.76758.22852,1.18359,0,.35938-.04883.66406-.14551.91211-.09717.25-.24268.52734-.43604.83203-.27734.35938-.8584.78906-1.74463,1.28711s-1.84814.99023-2.88623,1.47461c-1.03857.48438-2.03516.91992-2.99072,1.30859-.95508.38672-1.62695.66406-2.01416.83008-.11084.63672-.22852,1.28125-.35303,1.93164s-.21484,1.30859-.27002,1.97266c.85791-.44336,1.82764-.85742,2.90723-1.24609,1.08008-.38672,2.104-.58203,3.07373-.58203,1.96533,0,2.94873.9707,2.94873,2.9082,0,.4707-.09033.88672-.27002,1.24609-.18018.35938-.41504.67773-.70605.95508-.29053.27734-.62305.51953-.99658.72656-.37402.20703-.74121.4082-1.10059.60156-.88672.47266-1.81396.88086-2.78271,1.22656-.96973.3457-1.93848.68555-2.90771,1.01758-.05566.2207-.11084.46289-.16602.72656-.05566.26367-.08301.51953-.08301.76758,0,.38867.02734.77539.08301,1.16406.05518.38672.11035.77539.16602,1.16211.33252-.10938.86523-.29102,1.59912-.53906.7334-.25,1.50195-.5,2.30518-.74805.80273-.25,1.57812-.46289,2.32568-.64453.74756-.17969,1.30127-.26953,1.66162-.26953.41504,0,.80273.08984,1.1626.26953.35986.18164.66455.41602.91406.70703.24902.29102.44971.62891.60205,1.01758.15186.38672.22852.77539.22852,1.16211Z"/>
            <path class="cls-2" d="M46.90651,258.00248c0,.69336-.28418,1.34375-.85107,1.95312-.56787.60938-1.30176,1.16211-2.20117,1.66016-.90039.49805-1.9043.93555-3.01123,1.30859-1.10791.37305-2.20166.69336-3.28125.95508-1.08008.26367-2.09766.46289-3.05273.60352-.95508.13672-1.70996.20703-2.26367.20703-.52637,0-1.08691-.04883-1.68213-.14648-.5957-.0957-1.08691-.31055-1.47412-.64258-.22217-.16602-.41553-.54102-.58154-1.12109-.16602-.58203-.32568-1.27344-.47754-2.07812-.15283-.80273-.28418-1.66797-.39453-2.5957-.11133-.92578-.20117-1.83398-.27002-2.7207-.06982-.88477-.12451-1.70117-.1665-2.44922-.0415-.74805-.06201-1.33008-.06201-1.74414,0-.69141.02051-1.5293.06201-2.51367.04199-.98242.104-2.03516.18701-3.15625s.19336-2.26367.33252-3.42578c.13818-1.16406.29688-2.26367.47754-3.30273.17969-1.03906.40088-1.97266.66455-2.80273.2627-.83203.54639-1.48047.85156-1.95312.52539-.74609,1.18994-1.12109,1.99316-1.12109.55371,0,1.02441.1875,1.4126.56055.38721.375.69873.85938.93408,1.45312.23486.5957.41553,1.26172.54004,1.99414.12451.73438.21436,1.46094.27002,2.18164.05518.71875.08301,1.38477.08301,1.99219v1.45508c0,2.1582-.04883,4.29883-.14551,6.41602-.09717,2.11914-.14502,4.25781-.14502,6.41602v1.62109c1.24609-.38867,2.60205-.75391,4.07031-1.10156,1.46729-.3457,2.86572-.51953,4.19482-.51953.47021,0,.94775.0293,1.43262.08398.48438.05664.91406.17383,1.2876.35352.37402.17969.67822.44336.91357.78906s.35303.80859.35303,1.39062Z"/>
          </g>
          <g class="cls-1">
            <path class="cls-2" d="M71.53884,234.57865c0,.63672-.20117,1.18945-.60205,1.66016-.40186.47266-.87939.85938-1.43311,1.16406-.49805.30469-1.01074.62891-1.53662.97461-.52637.34766-1.01074.73438-1.45361,1.16406-.44336.42969-.80322.90625-1.07959,1.43359-.27734.52539-.41553,1.12109-.41553,1.78516,0,.58203.13818,1.10742.41553,1.57812.27637.4707.61572.93359,1.01758,1.39062.40088.45703.84424.92969,1.32861,1.41211.48438.48633.92773,1.02539,1.3291,1.62109s.74072,1.26562,1.01758,2.01367.41553,1.61914.41553,2.61719c0,.69141-.14551,1.47461-.43604,2.3457-.29102.87305-.68555,1.75195-1.18359,2.63867-.49854.88477-1.0874,1.74414-1.76514,2.57422-.6792.83008-1.39893,1.57227-2.16016,2.22266-.76172.65039-1.55713,1.17578-2.3877,1.57812-.83105.40039-1.63428.60156-2.40918.60156-.8584,0-1.61963-.23633-2.28418-.70508-.66455-.47266-.99707-1.17773-.99707-2.11914,0-.63672.15186-1.22461.45703-1.76562.3042-.53906.67822-1.05859,1.12158-1.55664.44238-.49805.93408-.98242,1.47412-1.45312s1.03125-.94141,1.47461-1.41211c.44238-.4707.81641-.96289,1.12109-1.47461s.45703-1.06055.45703-1.64062c0-.80273-.28418-1.62695-.85156-2.47266-.56787-.84375-1.19775-1.71484-1.88965-2.61523-.69238-.90039-1.32227-1.82031-1.88965-2.76172-.56787-.94141-.85156-1.89648-.85156-2.86719,0-1.18945.31787-2.44336.95557-3.75781.63623-1.31445,1.45361-2.51953,2.4502-3.61328.99707-1.09375,2.11816-2,3.36426-2.7207s2.47754-1.08008,3.69629-1.08008c.96924,0,1.7998.29102,2.49219.87305.69189.58008,1.03809,1.36914,1.03809,2.36719Z"/>
          </g>
          <g class="cls-1">
            <path class="cls-2" d="M93.55202,257.58842c0,.55273-.04883,1.21875-.14551,1.99219-.09717.77539-.28418,1.51562-.56055,2.22266-.27686.70508-.65088,1.30078-1.12158,1.78516s-1.09375.72656-1.86865.72656c-1.0249,0-1.79297-.37305-2.30518-1.12109-.5127-.74609-.87939-1.64062-1.10059-2.67773-.22217-1.03906-.35303-2.09766-.39453-3.17773s-.07666-1.9375-.104-2.57422c-1.99365.33203-3.95996.62109-5.89746.87109-.05615.63672-.17334,1.42578-.35303,2.36719-.18066.94141-.45703,1.84766-.83105,2.7207-.37354.87305-.8584,1.62695-1.45361,2.26367-.5957.63672-1.32227.95508-2.18018.95508-.66455,0-1.18408-.24219-1.55762-.72656-.37402-.48438-.6582-1.05859-.85156-1.72461-.19385-.66406-.31152-1.34961-.35303-2.05469-.0415-.70703-.06201-1.29492-.06201-1.76562,0-1.57812.12451-3.13477.37354-4.67188s.54004-3.06641.87207-4.58984c.1665-.80273.3877-1.74414.66455-2.82422s.61621-2.19336,1.01758-3.34375c.40137-1.14844.87256-2.2832,1.41211-3.40625.54004-1.12109,1.15576-2.12305,1.84863-3.00977.69141-.88672,1.48047-1.60547,2.36719-2.16016.88574-.55469,1.86914-.83008,2.94873-.83008,1.05225,0,1.96582.23438,2.74121.70508.7749.4707,1.45361,1.09375,2.03516,1.86914s1.06543,1.6543,1.45361,2.63672c.3877.98438.7124,1.98047.97607,2.99023.2627,1.01172.48438,2.00195.66455,2.9707.17969.96875.33887,1.82812.47754,2.57422.35986,1.80078.66455,3.62109.91406,5.46289.24902,1.8418.37354,3.68945.37354,5.54492ZM85.5364,247.49467c0-.33203-.021-.87891-.0625-1.64062s-.13184-1.52148-.27002-2.2832c-.13867-.76172-.35303-1.43945-.64355-2.03516-.29102-.5957-.68555-.89453-1.18408-.89453-.27686,0-.53955.1875-.78906.56055-.24902.375-.47119.8457-.66455,1.41211-.19385.56836-.36719,1.19922-.51904,1.89062-.15234.69336-.28418,1.35742-.39453,1.99414-.11084.63672-.19385,1.21094-.24902,1.72266-.05615.51367-.09766.87891-.125,1.10156,1.66162-.13867,3.29492-.3457,4.90137-.62305v-1.20508Z"/>
            <path class="cls-2" d="M114.60915,239.18803c0,1.91016-.47119,3.64844-1.41211,5.21289-.94141,1.56445-2.20117,2.87305-3.7793,3.92383.83057.16602,1.55029.45117,2.15967.85156.60889.40234,1.11426.89453,1.51611,1.47461.40088.58203.70605,1.24023.91357,1.97266.20752.73438.31152,1.50391.31152,2.30664,0,1.57812-.36719,2.95508-1.10059,4.13086-.73389,1.17773-1.68213,2.14648-2.84521,2.9082-1.1626.76172-2.45752,1.32812-3.8833,1.70312-1.42627.37305-2.84521.56055-4.25732.56055-.77539,0-1.55078-.05664-2.32568-.16602-.77539-.11133-1.50928-.30469-2.20117-.58203-.24902-.08203-.45703-.42188-.62305-1.01758s-.29785-1.32227-.39453-2.17969c-.09717-.85742-.17334-1.78711-.22852-2.7832-.05566-.99609-.09717-1.95117-.12451-2.86523-.02783-.91406-.0415-1.7168-.0415-2.41016v-4.38086c0-.98242.02734-1.95898.08301-2.92773,0-.25.00635-.63672.021-1.16406.01318-.52539.02686-1.11328.0415-1.76367.01318-.65039.0415-1.33594.08301-2.05664s.09668-1.39062.16602-2.01367c.06885-.62305.16602-1.15625.29053-1.59961.125-.44336.27002-.7207.43604-.83008.63672-.41602,1.34277-.81055,2.11865-1.18555.77441-.37305,1.57812-.69727,2.40869-.97461s1.66113-.49805,2.49219-.66406c.83057-.16797,1.61963-.25,2.36719-.25,1.02393,0,2.01416.14453,2.96973.43555.95508.29102,1.78564.72656,2.4917,1.30859s1.27344,1.29492,1.70312,2.13867c.42871.8457.64355,1.80664.64355,2.88672ZM107.71462,241.3892c0-.4707-.14502-.81641-.43604-1.03711-.29053-.22266-.67139-.33398-1.14209-.33398-.38818,0-.79639.08398-1.2251.25-.42969.16602-.79639.38867-1.10059.66406-.08301.08398-.15967.31836-.22852.70703-.06934.38672-.12451.82422-.16602,1.30859s-.06982.94141-.08301,1.36914c-.01465.42969-.021.71484-.021.85156v.27148c0,.12305.00635.25586.021.39453.01318.13867.03418.26172.06201.37305.02734.11133.06885.16602.12451.16602.4707,0,.95557-.17188,1.45361-.51953.49854-.3457.94824-.77539,1.3501-1.28711.40088-.51172.7334-1.05859.99658-1.64062s.39453-1.09375.39453-1.53711ZM107.5486,253.39311c0-.4707-.16602-.80273-.49854-.99805-.33203-.19336-.70605-.28906-1.12109-.28906-.38818,0-.79639.08984-1.2251.26953-.42969.17969-.78271.39453-1.05957.64258-.08301.05664-.14502.19531-.18652.41602-.0415.22266-.06934.46484-.08301.72656-.01465.26367-.02832.51367-.0415.74805-.01465.23633-.021.39453-.021.47656v.33398c0,.16602.00635.33789.021.51758.01318.18164.0415.34766.08301.5s.08936.22852.14502.22852c.3877,0,.81641-.11133,1.2876-.33398.4707-.2207.90674-.49805,1.30859-.83008.40088-.33203.73291-.71289.99658-1.14258.2627-.42773.39453-.85156.39453-1.26562Z"/>
            <path class="cls-2" d="M125.98952,265.10404c-1.68945,0-3.15674-.42188-4.40283-1.26562s-2.27783-1.97852-3.09424-3.40625c-.81689-1.42578-1.42627-3.08008-1.82715-4.96289-.40186-1.88281-.60254-3.86328-.60254-5.93945,0-1.9375.21436-3.9043.64404-5.89844.42871-1.99219,1.08594-3.79297,1.97266-5.39844.88574-1.60547,2.00732-2.91992,3.36426-3.94531,1.35645-1.02344,2.97607-1.53711,4.85938-1.53711,1.82715,0,3.35693.49219,4.58936,1.47461,1.23193.98242,2.21484,2.25781,2.94873,3.82031.7334,1.56445,1.25977,3.31641,1.57861,5.25391.31787,1.93945.47754,3.87695.47754,5.81445,0,2.16016-.21484,4.20312-.64404,6.12695-.42969,1.92578-1.07959,3.62109-1.95215,5.08789-.87207,1.46875-1.96631,2.63086-3.28076,3.48828-1.31543.85938-2.85938,1.28711-4.63086,1.28711ZM126.48757,241.93022c-.52637,0-.97607.20703-1.34961.62305-.37402.41406-.68555.96094-.93457,1.64062-.24902.67773-.42969,1.43945-.54004,2.2832-.11084.8457-.16602,1.69727-.16602,2.55469,0,.96875.0625,1.9375.18701,2.90625.12451.9707.31152,1.8418.56055,2.61719s.56055,1.39844.93457,1.86914c.37354.4707.82324.70703,1.34961.70703.60889,0,1.09375-.30469,1.45361-.91406s.64404-1.34375.85156-2.20117c.20752-.85938.34619-1.74414.41553-2.6582.06885-.91406.10352-1.67578.10352-2.28516,0-.74805-.04834-1.53711-.14502-2.36719-.09766-.83008-.25635-1.59961-.47803-2.30469-.22168-.70703-.51221-1.29492-.87207-1.76562s-.81689-.70508-1.37061-.70508Z"/>
            <path class="cls-2" d="M159.09157,241.88725c0,1.91211-.44336,3.62891-1.3291,5.15039-.88623,1.52344-2.06299,2.86719-3.53027,4.0293.44238.66406.89941,1.43945,1.37061,2.32617.4707.88672.89307,1.82031,1.2666,2.80273.37402.98438.67822,1.9668.91406,2.94922.23486.98242.35303,1.89062.35303,2.7207,0,.88672-.21484,1.68164-.64404,2.38867-.42969.70508-1.15625,1.05859-2.18018,1.05859-.85889,0-1.59912-.41602-2.22217-1.24609s-1.17725-1.82031-1.66113-2.9707c-.48486-1.14844-.92822-2.31836-1.3291-3.50781-.40186-1.19141-.78271-2.14648-1.14258-2.86719-.49805.16602-.98291.35352-1.45361.56055-.47119.20898-.95508.41016-1.45361.60352-.02783.60938-.07666,1.44727-.14502,2.51172-.06982,1.06641-.22217,2.125-.45703,3.17773-.23584,1.05273-.58887,1.9668-1.05908,2.74023-.47119.77539-1.12158,1.16406-1.95215,1.16406-.91357,0-1.61963-.375-2.11816-1.12109-.49854-.74805-.85156-1.63477-1.05908-2.6582-.20752-1.02539-.32568-2.07031-.35303-3.13672-.02783-1.06445-.0415-1.90234-.0415-2.51172,0-1.30078.02734-2.58203.08301-3.8418.05518-1.25977.08301-2.54102.08301-3.8418,0-1.19141-.02051-2.38086-.06201-3.57227-.04199-1.18945-.0625-2.39453-.0625-3.61328v-1.05859c0-.42969.02051-.87305.0625-1.33008.0415-.45703.08936-.89258.14502-1.30859.05518-.41406.15186-.74609.29102-.99609.27637-.58203.90625-1.13477,1.88965-1.66211.98242-.52539,2.0625-.98828,3.23975-1.39062,1.17627-.40039,2.32568-.7207,3.44727-.95508,1.12109-.23438,1.9585-.35352,2.5127-.35352,1.41211,0,2.6582.26367,3.73779.78906,1.08008.52734,1.97949,1.24023,2.69971,2.13867.71973.90039,1.25977,1.93945,1.61963,3.11523.35986,1.17773.54004,2.41602.54004,3.7168ZM151.40798,242.46928c0-.71875-.16602-1.26758-.49854-1.64062-.33203-.37305-.87207-.56055-1.61963-.56055-.5542,0-1.11475.09766-1.68213.29102-.56787.19336-1.08691.41602-1.55762.66406.11035,2.1875.15186,4.36133.12451,6.52148.58154-.19336,1.17676-.44336,1.78613-.74805.60889-.30469,1.16943-.67773,1.68213-1.12109.51221-.44336.93457-.94141,1.2666-1.49609.33252-.55273.49854-1.18945.49854-1.91016Z"/>
            <path class="cls-2" d="M194.72683,245.91654c0,.60938-.02783,1.47461-.08301,2.5957-.05615,1.12109-.15967,2.35352-.31152,3.69727-.15283,1.34375-.36768,2.71289-.64404,4.11133-.27686,1.39844-.63721,2.66602-1.07959,3.80078-.44336,1.13477-.9834,2.07031-1.62012,2.80273-.63721.73438-1.39844,1.10156-2.28418,1.10156-.83057,0-1.59229-.24414-2.28418-.72852-.69238-.48242-1.31543-1.07812-1.86914-1.78516-.5542-.70508-1.03809-1.46094-1.45361-2.26367s-.76172-1.53711-1.03857-2.20117c-.58105-1.41211-1.1626-2.80273-1.74414-4.17383s-1.13574-2.76172-1.66162-4.17383v1.16211c0,1.19141-.00684,2.375-.02051,3.55078-.01416,1.17773-.104,2.34766-.27002,3.50977-.05566.47266-.11816,1.01758-.18701,1.64062-.06934.62305-.17334,1.24023-.31152,1.84961-.13867.60938-.33936,1.17578-.60205,1.70117-.26367.52734-.6167.91406-1.05908,1.16406-.24902.13867-.47754.2207-.68555.24805-.20752.0293-.43604.07031-.68506.125h-.12451c-.63721,0-1.17725-.21289-1.62012-.64258s-.81689-.98242-1.12109-1.66211c-.30518-.67773-.54736-1.43945-.72705-2.28516-.18018-.84375-.31836-1.67383-.41504-2.49023-.09766-.81641-.15967-1.57227-.18701-2.26367-.02783-.69336-.0415-1.24609-.0415-1.66211,0-.63672.02734-1.57031.08301-2.80273.05518-1.23242.17285-2.5957.35303-4.0918.17969-1.49609.41553-3.03125.70605-4.60938s.6709-3.01172,1.14209-4.29883c.4707-1.28906,1.03857-2.33984,1.70312-3.15625s1.43896-1.22656,2.32568-1.22656c.85791,0,1.62646.33203,2.30518.99805.67822.66406,1.28027,1.45312,1.80664,2.36719.52539.91406.96875,1.86914,1.3291,2.86523.35938.99609.66455,1.82812.91357,2.49219.4707,1.30078.92725,2.5957,1.37061,3.88281.44287,1.28711.87207,2.5957,1.2876,3.92578.02734.05469.08301.20703.16602.45703.08301.24805.17969.52539.29102.83008.11035.33203.24902.70508.41504,1.12109,0-.35938-.00684-.61523-.02051-.76758-.01465-.15234-.021-.29102-.021-.41602v-1.39062c-.02783-.91406-.04834-1.82812-.06201-2.74219-.01465-.91406-.021-1.8125-.021-2.69922,0-.38672.00635-.92773.021-1.61914.01367-.69336.05518-1.43359.12451-2.22266.06885-.78906.17236-1.58594.31152-2.38867.13818-.80273.33887-1.5293.60205-2.17969.2627-.65039.59521-1.18359.99707-1.59961.40088-.41602.89258-.62305,1.47412-.62305.69189,0,1.2876.26367,1.78613.78906.49805.52734.91357,1.19727,1.24609,2.01367.33203.81836.59473,1.73242.78906,2.74219.19336,1.01172.3457,2,.45654,2.96875.11035.9707.18018,1.86914.20801,2.70117.02686.83008.0415,1.48047.0415,1.95117Z"/>
          </g>
          <g class="cls-1">
            <path class="cls-2" d="M218.43191,257.58842c0,.55273-.04883,1.21875-.14551,1.99219-.09717.77539-.28418,1.51562-.56055,2.22266-.27686.70508-.65088,1.30078-1.12158,1.78516s-1.09375.72656-1.86865.72656c-1.0249,0-1.79297-.37305-2.30518-1.12109-.5127-.74609-.87939-1.64062-1.10059-2.67773-.22217-1.03906-.35303-2.09766-.39453-3.17773s-.07666-1.9375-.104-2.57422c-1.99365.33203-3.95996.62109-5.89746.87109-.05615.63672-.17334,1.42578-.35303,2.36719-.18066.94141-.45703,1.84766-.83105,2.7207-.37354.87305-.8584,1.62695-1.45361,2.26367-.5957.63672-1.32227.95508-2.18018.95508-.66455,0-1.18408-.24219-1.55762-.72656-.37402-.48438-.6582-1.05859-.85156-1.72461-.19385-.66406-.31152-1.34961-.35303-2.05469-.0415-.70703-.06201-1.29492-.06201-1.76562,0-1.57812.12451-3.13477.37354-4.67188s.54004-3.06641.87207-4.58984c.1665-.80273.3877-1.74414.66455-2.82422s.61621-2.19336,1.01758-3.34375c.40137-1.14844.87256-2.2832,1.41211-3.40625.54004-1.12109,1.15576-2.12305,1.84863-3.00977.69141-.88672,1.48047-1.60547,2.36719-2.16016.88574-.55469,1.86914-.83008,2.94873-.83008,1.05225,0,1.96582.23438,2.74121.70508.7749.4707,1.45361,1.09375,2.03516,1.86914s1.06543,1.6543,1.45361,2.63672c.3877.98438.7124,1.98047.97607,2.99023.2627,1.01172.48438,2.00195.66455,2.9707.17969.96875.33887,1.82812.47754,2.57422.35986,1.80078.66455,3.62109.91406,5.46289.24902,1.8418.37354,3.68945.37354,5.54492ZM210.41628,247.49467c0-.33203-.021-.87891-.0625-1.64062s-.13184-1.52148-.27002-2.2832c-.13867-.76172-.35303-1.43945-.64355-2.03516-.29102-.5957-.68555-.89453-1.18408-.89453-.27686,0-.53955.1875-.78906.56055-.24902.375-.47119.8457-.66455,1.41211-.19385.56836-.36719,1.19922-.51904,1.89062-.15234.69336-.28418,1.35742-.39453,1.99414-.11084.63672-.19385,1.21094-.24902,1.72266-.05615.51367-.09766.87891-.125,1.10156,1.66162-.13867,3.29492-.3457,4.90137-.62305v-1.20508Z"/>
          </g>
          <g class="cls-1">
            <path class="cls-2" d="M238.70192,235.36772c0,.69141-.27051,1.32227-.81055,1.88867-.54004.56836-1.19043,1.06641-1.95215,1.49609s-1.54395.7832-2.34668,1.05859c-.80273.27734-1.46777.4707-1.99316.58203-.22168,2.13281-.39453,4.25586-.51953,6.375-.12402,2.11914-.18652,4.24414-.18652,6.375,0,1.13672.02734,2.25781.08301,3.36523s.08301,2.21484.08301,3.32227c0,.49805-.04883,1.04492-.14551,1.64062s-.26367,1.15625-.49805,1.68164c-.23535.52734-.56055.96875-.97656,1.33008-.41504.35938-.92773.53906-1.53613.53906-.7207,0-1.29492-.20117-1.72363-.60156-.42969-.40234-.76172-.89453-.99707-1.47461-.23535-.58203-.39453-1.19727-.47754-1.84961-.08301-.65039-.125-1.23828-.125-1.76367-.05566-1.66211-.09668-3.33008-.12402-5.00586-.02832-1.67383-.04199-3.35742-.04199-5.04492,0-1.41211.00684-2.79688.02148-4.1543.01367-1.35547.02051-2.74023.02051-4.15234-.38867.05469-.7832.0957-1.18359.12305-.40234.0293-.81055.04297-1.22559.04297-.33203,0-.76855-.03516-1.30859-.10547-.53906-.06836-1.05859-.19336-1.55664-.37305-.49902-.17969-.92773-.42969-1.28809-.74805-.35938-.31836-.54004-.72656-.54004-1.22461,0-.83008.32617-1.55664.97656-2.17969s1.48047-1.16406,2.49121-1.62109,2.13184-.84375,3.36426-1.16211,2.45117-.56836,3.65527-.74805,2.31152-.31055,3.32227-.39453,1.79297-.125,2.34668-.125c.52637,0,1.08691.02148,1.68262.0625.59473.04102,1.15527.16016,1.68164.35352s.96191.48438,1.30859.87109c.3457.38867.51953.92969.51953,1.62109Z"/>
            <path class="cls-2" d="M258.80349,249.15678c0,1.13477-.05566,2.30469-.16602,3.50977-.11133,1.20312-.30469,2.37305-.58105,3.50977-.27734,1.13477-.6582,2.20703-1.14258,3.21875-.48438,1.00977-1.10059,1.89648-1.84766,2.6582-.74805.76172-1.64844,1.36328-2.7002,1.80664-1.05273.44141-2.28418.66406-3.69629.66406-2.07715,0-3.88379-.48438-5.41992-1.45312-1.53711-.9707-2.81836-2.20898-3.8418-3.71875-1.02539-1.50781-1.78613-3.19727-2.28418-5.06641-.49902-1.86914-.74805-3.7168-.74805-5.54492v-.53906c0-.16602.01367-.31836.04199-.45703.02637-.58203.0752-1.37109.14453-2.36719.06934-.99805.1875-2.0625.35352-3.19922.16602-1.13477.37988-2.29688.64355-3.48828.2627-1.18945.6084-2.25586,1.03809-3.19727s.94824-1.7168,1.55762-2.32617,1.3291-.91406,2.16016-.91406c.6084,0,1.12109.17969,1.53613.53906.41602.36133.75488.81055,1.01758,1.34961.26367.54102.4502,1.10938.56152,1.70312.11035.5957.16602,1.14258.16602,1.64062,0,.74805-.07715,1.50195-.22852,2.26367-.15234.76172-.29785,1.51562-.43652,2.26367-.22168,1.19141-.40137,2.38281-.54004,3.57227-.13867,1.19141-.20703,2.4082-.20703,3.6543,0,.63867.03418,1.41211.10352,2.32617.06836.91406.24219,1.79297.51953,2.63672.27637.8457.6709,1.56641,1.18359,2.16016.51172.5957,1.21094.89258,2.09668.89258.8584,0,1.54395-.28906,2.05664-.87109.51172-.58203.89258-1.27344,1.1416-2.07617s.4082-1.64844.47754-2.53516c.06934-.88477.10449-1.64648.10449-2.2832,0-1.82812-.15234-3.63477-.45703-5.41992-.30469-1.78711-.70605-3.56445-1.2041-5.33789-.13965-.4707-.25684-.94141-.35352-1.41211-.09766-.4707-.14551-.94141-.14551-1.41211,0-.77539.22852-1.45312.68555-2.03516.45703-.58008,1.10059-.87109,1.93164-.87109.69141,0,1.33496.26953,1.93066.80859.5957.54102,1.12793,1.24609,1.59961,2.11914.46973.87109.87793,1.84766,1.22461,2.92773.3457,1.08008.64355,2.15234.89355,3.21875.24902,1.06641.43555,2.08398.56055,3.05273.12402.96875.2002,1.75781.22852,2.36719.02734.27734.04102.54688.04102.81055v.85156Z"/>
            <path class="cls-2" d="M281.81325,241.88725c0,1.91211-.44336,3.62891-1.3291,5.15039-.88672,1.52344-2.06348,2.86719-3.53027,4.0293.44238.66406.89941,1.43945,1.37012,2.32617s.89355,1.82031,1.2666,2.80273c.37402.98438.67871,1.9668.91406,2.94922s.35352,1.89062.35352,2.7207c0,.88672-.21484,1.68164-.64453,2.38867-.42969.70508-1.15625,1.05859-2.17969,1.05859-.85938,0-1.59961-.41602-2.22266-1.24609s-1.17676-1.82031-1.66113-2.9707c-.48438-1.14844-.92773-2.31836-1.3291-3.50781-.40137-1.19141-.78223-2.14648-1.14258-2.86719-.49805.16602-.98242.35352-1.45312.56055-.47168.20898-.95508.41016-1.4541.60352-.02734.60938-.07617,1.44727-.14453,2.51172-.07031,1.06641-.22266,2.125-.45703,3.17773-.23633,1.05273-.58887,1.9668-1.05957,2.74023-.4707.77539-1.12109,1.16406-1.95215,1.16406-.91309,0-1.61914-.375-2.11816-1.12109-.49805-.74805-.85156-1.63477-1.05859-2.6582-.20801-1.02539-.32617-2.07031-.35352-3.13672-.02734-1.06445-.04102-1.90234-.04102-2.51172,0-1.30078.02734-2.58203.08301-3.8418.05469-1.25977.08301-2.54102.08301-3.8418,0-1.19141-.02051-2.38086-.0625-3.57227-.04199-1.18945-.0625-2.39453-.0625-3.61328v-1.05859c0-.42969.02051-.87305.0625-1.33008s.08984-.89258.14551-1.30859c.05469-.41406.15137-.74609.29102-.99609.27637-.58203.90625-1.13477,1.88965-1.66211.98242-.52539,2.0625-.98828,3.23926-1.39062,1.17676-.40039,2.32617-.7207,3.44727-.95508s1.95898-.35352,2.5127-.35352c1.41211,0,2.6582.26367,3.73828.78906,1.08008.52734,1.97949,1.24023,2.69922,2.13867.71973.90039,1.25977,1.93945,1.62012,3.11523.35938,1.17773.54004,2.41602.54004,3.7168ZM274.12966,242.46928c0-.71875-.16602-1.26758-.49902-1.64062-.33203-.37305-.87207-.56055-1.61914-.56055-.55469,0-1.11523.09766-1.68262.29102s-1.08691.41602-1.55762.66406c.11035,2.1875.15234,4.36133.125,6.52148.58105-.19336,1.17676-.44336,1.78613-.74805.6084-.30469,1.16895-.67773,1.68164-1.12109s.93457-.94141,1.2666-1.49609c.33301-.55273.49902-1.18945.49902-1.91016Z"/>
            <path class="cls-2" d="M304.24099,257.58842c0,.55273-.04883,1.21875-.14551,1.99219-.09766.77539-.28418,1.51562-.56055,2.22266-.27734.70508-.65137,1.30078-1.12207,1.78516s-1.09375.72656-1.86816.72656c-1.02539,0-1.79297-.37305-2.30566-1.12109-.5127-.74609-.87891-1.64062-1.10059-2.67773-.22168-1.03906-.35254-2.09766-.39453-3.17773-.04102-1.08008-.07617-1.9375-.10352-2.57422-1.99414.33203-3.95996.62109-5.89746.87109-.05664.63672-.17383,1.42578-.35352,2.36719-.18066.94141-.45703,1.84766-.83105,2.7207-.37305.87305-.8584,1.62695-1.45312,2.26367-.5957.63672-1.32227.95508-2.18066.95508-.66406,0-1.18359-.24219-1.55762-.72656s-.6582-1.05859-.85156-1.72461c-.19336-.66406-.31152-1.34961-.35254-2.05469-.04199-.70703-.0625-1.29492-.0625-1.76562,0-1.57812.125-3.13477.37402-4.67188s.54004-3.06641.87207-4.58984c.16602-.80273.3877-1.74414.66406-2.82422.27734-1.08008.61621-2.19336,1.01758-3.34375.40137-1.14844.87305-2.2832,1.41211-3.40625.54004-1.12109,1.15625-2.12305,1.84863-3.00977.69141-.88672,1.48047-1.60547,2.36719-2.16016.88574-.55469,1.86914-.83008,2.94922-.83008,1.05176,0,1.96582.23438,2.74121.70508.77441.4707,1.45312,1.09375,2.03516,1.86914.58105.77539,1.06543,1.6543,1.45312,2.63672.3877.98438.71289,1.98047.97656,2.99023.2627,1.01172.48438,2.00195.66406,2.9707s.33887,1.82812.47754,2.57422c.36035,1.80078.66504,3.62109.91406,5.46289s.37402,3.68945.37402,5.54492ZM296.22536,247.49467c0-.33203-.02148-.87891-.0625-1.64062-.04199-.76172-.13184-1.52148-.27051-2.2832s-.35254-1.43945-.64355-2.03516-.68555-.89453-1.18359-.89453c-.27734,0-.54004.1875-.78906.56055-.24902.375-.47168.8457-.66504,1.41211-.19336.56836-.36719,1.19922-.51855,1.89062-.15234.69336-.28418,1.35742-.39453,1.99414-.11133.63672-.19434,1.21094-.24902,1.72266-.05664.51367-.09766.87891-.125,1.10156,1.66113-.13867,3.29492-.3457,4.90137-.62305v-1.20508Z"/>
            <path class="cls-2" d="M326.75173,258.00248c0,.69336-.28418,1.34375-.85156,1.95312s-1.30176,1.16211-2.20117,1.66016c-.90039.49805-1.9043.93555-3.01074,1.30859-1.1084.37305-2.20215.69336-3.28125.95508-1.08008.26367-2.09766.46289-3.05273.60352-.95508.13672-1.70996.20703-2.26367.20703-.52637,0-1.08691-.04883-1.68262-.14648-.5957-.0957-1.08691-.31055-1.47363-.64258-.22266-.16602-.41602-.54102-.58203-1.12109-.16602-.58203-.3252-1.27344-.47754-2.07812-.15234-.80273-.28418-1.66797-.39453-2.5957-.11133-.92578-.20117-1.83398-.26953-2.7207-.07031-.88477-.125-1.70117-.16699-2.44922-.04102-.74805-.06152-1.33008-.06152-1.74414,0-.69141.02051-1.5293.06152-2.51367.04199-.98242.10449-2.03516.1875-3.15625s.19336-2.26367.33203-3.42578c.13867-1.16406.29688-2.26367.47754-3.30273.17969-1.03906.40137-1.97266.66504-2.80273.2627-.83203.5459-1.48047.85156-1.95312.52539-.74609,1.18945-1.12109,1.99316-1.12109.55371,0,1.02441.1875,1.41211.56055.3877.375.69922.85938.93457,1.45312.23438.5957.41504,1.26172.54004,1.99414.12402.73438.21387,1.46094.26953,2.18164.05566.71875.08301,1.38477.08301,1.99219v1.45508c0,2.1582-.04883,4.29883-.14551,6.41602-.09668,2.11914-.14453,4.25781-.14453,6.41602v1.62109c1.24609-.38867,2.60156-.75391,4.07031-1.10156,1.4668-.3457,2.86523-.51953,4.19434-.51953.4707,0,.94824.0293,1.43262.08398.48438.05664.91406.17383,1.28809.35352s.67773.44336.91309.78906.35352.80859.35352,1.39062Z"/>
            <path class="cls-2" d="M359.18923,245.04545c0,2.43555-.49805,4.7832-1.49512,7.03906-.99707,2.25781-2.33301,4.25781-4.00781,6.00195-1.67578,1.74414-3.62793,3.13477-5.85645,4.17383-2.22949,1.03711-4.5752,1.55664-7.04004,1.55664h-.08301c-.49805,0-.90723-.22852-1.22461-.68555-.31934-.45703-.58887-1.03125-.81055-1.72266s-.3877-1.4668-.49805-2.32617c-.11133-.85742-.19434-1.69531-.24902-2.51172-.05566-.81641-.08301-1.55078-.08301-2.20312v-1.47266c0-.94141.01367-1.87695.04102-2.80469s.06934-1.86133.125-2.80273c0-.30469.02051-.75391.0625-1.34961.04102-.5957.08887-1.26758.14453-2.01562.05566-.74609.125-1.5293.20801-2.3457s.17285-1.57812.27051-2.28516c.09668-.70508.19336-1.32812.29004-1.86914.09668-.53906.21484-.90625.35352-1.09961.35938-.60938.91309-1.14844,1.66113-1.61914.74707-.4707,1.55762-.85938,2.42969-1.16406s1.75781-.5332,2.6582-.68555c.89941-.15234,1.68164-.22852,2.34668-.22852,1.82715,0,3.41211.33984,4.75586,1.01758,1.3418.67969,2.46387,1.59375,3.36328,2.74219s1.56445,2.4707,1.99414,3.9668c.42871,1.49414.64355,3.05859.64355,4.69336ZM352.21169,246.24857c0-.60742-.11133-1.23047-.33203-1.86914-.22168-.63672-.5332-1.2168-.93457-1.74414-.40137-.52539-.88672-.94727-1.4541-1.26562s-1.19727-.47852-1.88965-.47852c-.58105,0-1.17676.13867-1.78613.41602-.13867.08203-.2627.33789-.37305.76758-.11133.42969-.20117.94922-.27051,1.55664-.06934.60938-.13184,1.27539-.18652,1.99414-.05566.7207-.09082,1.40625-.10352,2.05664-.01465.65039-.02832,1.22461-.04199,1.72266-.01465.5-.02051.83203-.02051.99805v1.22461c0,.53906.02051,1.07422.0625,1.59961.04102.52539.08887.98242.14453,1.36914.05566.38867.15234.58203.29102.58203.83105,0,1.6543-.32422,2.47168-.97656.81641-.64844,1.55664-1.44531,2.22168-2.38672.66406-.94141,1.19727-1.92383,1.59863-2.94922.40137-1.02344.60254-1.89648.60254-2.61719Z"/>
            <path class="cls-2" d="M379.16677,257.21342c0,.52734-.13867,1.03906-.41504,1.53711-.27734.4707-.92773,1.02539-1.95215,1.66211s-2.16016,1.23828-3.40527,1.80664c-1.24609.56641-2.45117,1.05273-3.61426,1.45312-1.16211.40039-2.02148.60156-2.57422.60156-.38867,0-.8457-.08984-1.37109-.26953-.52637-.17969-1.05273-.4082-1.57812-.68555-.52637-.27539-1.00391-.5957-1.43262-.95508-.42969-.35938-.74121-.70508-.93457-1.03906-.11133-.19336-.21484-.58008-.31152-1.16211-.09766-.58203-.18066-1.25977-.24902-2.03516-.07031-.77539-.13184-1.59961-.1875-2.4707-.05566-.87305-.10352-1.70312-.14551-2.49219-.04102-.78906-.06934-1.48828-.08301-2.09766s-.02051-1.05273-.02051-1.33008c0-1.02344.03418-2.20117.10352-3.5293.06934-1.33008.20117-2.66406.39453-4.00781s.47754-2.63086.85156-3.86328c.37402-1.23047.87891-2.27734,1.5166-3.13477.19336-.25.58105-.51172,1.16211-.78906.58203-.27734,1.26758-.54102,2.05664-.78906.78906-.25,1.64062-.48438,2.55371-.70703.91406-.2207,1.79297-.4082,2.6377-.56055.84375-.15234,1.6123-.27734,2.30469-.37305.69238-.09766,1.21875-.14648,1.57812-.14648.41602,0,.81055.08984,1.18457.26953.37305.18164.69141.42383.95508.72852.2627.30469.4707.64258.62305,1.01758.15137.37305.22852.76758.22852,1.18359,0,.35938-.04883.66406-.14551.91211-.09766.25-.24316.52734-.43652.83203-.27734.35938-.8584.78906-1.74414,1.28711-.88672.49805-1.84863.99023-2.88672,1.47461s-2.03516.91992-2.99023,1.30859c-.95508.38672-1.62695.66406-2.01465.83008-.11035.63672-.22852,1.28125-.35254,1.93164-.125.65039-.21484,1.30859-.27051,1.97266.8584-.44336,1.82812-.85742,2.90723-1.24609,1.08008-.38672,2.10449-.58203,3.07422-.58203,1.96484,0,2.94824.9707,2.94824,2.9082,0,.4707-.08984.88672-.26953,1.24609-.18066.35938-.41504.67773-.70605.95508s-.62305.51953-.99707.72656-.74121.4082-1.10059.60156c-.88672.47266-1.81348.88086-2.78223,1.22656-.96973.3457-1.93848.68555-2.9082,1.01758-.05566.2207-.11035.46289-.16602.72656s-.08301.51953-.08301.76758c0,.38867.02734.77539.08301,1.16406.05566.38672.11035.77539.16602,1.16211.33301-.10938.86523-.29102,1.59961-.53906.7334-.25,1.50195-.5,2.30469-.74805.80273-.25,1.57812-.46289,2.32617-.64453.74707-.17969,1.30078-.26953,1.66113-.26953.41504,0,.80273.08984,1.16309.26953.35938.18164.66406.41602.91406.70703.24902.29102.44922.62891.60156,1.01758.15234.38672.22852.77539.22852,1.16211Z"/>
            <path class="cls-2" d="M410.85622,258.00248c0,.69336-.28418,1.34375-.85059,1.95312-.56836.60938-1.30176,1.16211-2.20117,1.66016-.90039.49805-1.9043.93555-3.01172,1.30859s-2.20117.69336-3.28125.95508c-1.08008.26367-2.09766.46289-3.05273.60352-.95508.13672-1.70996.20703-2.26367.20703-.52637,0-1.08691-.04883-1.68164-.14648-.5957-.0957-1.08691-.31055-1.47461-.64258-.22168-.16602-.41504-.54102-.58105-1.12109-.16602-.58203-.32617-1.27344-.47754-2.07812-.15332-.80273-.28418-1.66797-.39453-2.5957-.11133-.92578-.20117-1.83398-.27051-2.7207-.06934-.88477-.12402-1.70117-.16602-2.44922s-.0625-1.33008-.0625-1.74414c0-.69141.02051-1.5293.0625-2.51367.04199-.98242.10352-2.03516.18652-3.15625s.19336-2.26367.33301-3.42578c.1377-1.16406.29688-2.26367.47754-3.30273.17969-1.03906.40039-1.97266.66406-2.80273.2627-.83203.54688-1.48047.85156-1.95312.52539-.74609,1.19043-1.12109,1.99316-1.12109.55371,0,1.02441.1875,1.41309.56055.38672.375.69824.85938.93359,1.45312.23535.5957.41602,1.26172.54004,1.99414.125.73438.21484,1.46094.27051,2.18164.05469.71875.08301,1.38477.08301,1.99219v1.45508c0,2.1582-.04883,4.29883-.14551,6.41602-.09766,2.11914-.14551,4.25781-.14551,6.41602v1.62109c1.24609-.38867,2.60254-.75391,4.07031-1.10156,1.46777-.3457,2.86621-.51953,4.19531-.51953.46973,0,.94727.0293,1.43262.08398.48438.05664.91406.17383,1.28711.35352.37402.17969.67871.44336.91406.78906s.35254.80859.35254,1.39062Z"/>
            <path class="cls-2" d="M432.86892,257.58842c0,.55273-.04883,1.21875-.14551,1.99219-.09668.77539-.28418,1.51562-.56055,2.22266-.27637.70508-.65039,1.30078-1.12109,1.78516s-1.09375.72656-1.86914.72656c-1.02441,0-1.79297-.37305-2.30469-1.12109-.5127-.74609-.87988-1.64062-1.10059-2.67773-.22266-1.03906-.35352-2.09766-.39453-3.17773-.04199-1.08008-.07715-1.9375-.10449-2.57422-1.99316.33203-3.95996.62109-5.89746.87109-.05566.63672-.17285,1.42578-.35254,2.36719-.18066.94141-.45703,1.84766-.83105,2.7207s-.8584,1.62695-1.4541,2.26367-1.32227.95508-2.17969.95508c-.66504,0-1.18457-.24219-1.55762-.72656-.37402-.48438-.6582-1.05859-.85156-1.72461-.19434-.66406-.31152-1.34961-.35352-2.05469-.04102-.70703-.06152-1.29492-.06152-1.76562,0-1.57812.12402-3.13477.37305-4.67188s.54004-3.06641.87207-4.58984c.16699-.80273.3877-1.74414.66504-2.82422.27637-1.08008.61621-2.19336,1.01758-3.34375.40137-1.14844.87207-2.2832,1.41211-3.40625.54004-1.12109,1.15527-2.12305,1.84863-3.00977.69141-.88672,1.48047-1.60547,2.36719-2.16016.88574-.55469,1.86914-.83008,2.94824-.83008,1.05273,0,1.96582.23438,2.74121.70508s1.4541,1.09375,2.03516,1.86914c.58203.77539,1.06543,1.6543,1.4541,2.63672.3877.98438.71191,1.98047.97559,2.99023.2627,1.01172.48438,2.00195.66504,2.9707.17969.96875.33887,1.82812.47754,2.57422.35938,1.80078.66406,3.62109.91406,5.46289.24902,1.8418.37305,3.68945.37305,5.54492ZM424.85329,247.49467c0-.33203-.02051-.87891-.0625-1.64062-.04102-.76172-.13184-1.52148-.26953-2.2832-.13867-.76172-.35352-1.43945-.64355-2.03516-.29102-.5957-.68555-.89453-1.18457-.89453-.27637,0-.53906.1875-.78906.56055-.24902.375-.4707.8457-.66406,1.41211-.19434.56836-.36719,1.19922-.51953,1.89062-.15234.69336-.28418,1.35742-.39453,1.99414s-.19336,1.21094-.24902,1.72266c-.05566.51367-.09766.87891-.125,1.10156,1.66211-.13867,3.29492-.3457,4.90137-.62305v-1.20508Z"/>
            <path class="cls-2" d="M465.38942,258.00248c0,.69336-.28418,1.34375-.85059,1.95312-.56836.60938-1.30176,1.16211-2.20117,1.66016-.90039.49805-1.9043.93555-3.01172,1.30859s-2.20117.69336-3.28125.95508c-1.08008.26367-2.09766.46289-3.05273.60352-.95508.13672-1.70996.20703-2.26367.20703-.52637,0-1.08691-.04883-1.68164-.14648-.5957-.0957-1.08691-.31055-1.47461-.64258-.22168-.16602-.41504-.54102-.58105-1.12109-.16602-.58203-.32617-1.27344-.47754-2.07812-.15332-.80273-.28418-1.66797-.39453-2.5957-.11133-.92578-.20117-1.83398-.27051-2.7207-.06934-.88477-.12402-1.70117-.16602-2.44922s-.0625-1.33008-.0625-1.74414c0-.69141.02051-1.5293.0625-2.51367.04199-.98242.10352-2.03516.18652-3.15625s.19336-2.26367.33301-3.42578c.1377-1.16406.29688-2.26367.47754-3.30273.17969-1.03906.40039-1.97266.66406-2.80273.2627-.83203.54688-1.48047.85156-1.95312.52539-.74609,1.19043-1.12109,1.99316-1.12109.55371,0,1.02441.1875,1.41309.56055.38672.375.69824.85938.93359,1.45312.23535.5957.41602,1.26172.54004,1.99414.125.73438.21484,1.46094.27051,2.18164.05469.71875.08301,1.38477.08301,1.99219v1.45508c0,2.1582-.04883,4.29883-.14551,6.41602-.09766,2.11914-.14551,4.25781-.14551,6.41602v1.62109c1.24609-.38867,2.60254-.75391,4.07031-1.10156,1.46777-.3457,2.86621-.51953,4.19531-.51953.46973,0,.94727.0293,1.43262.08398.48438.05664.91406.17383,1.28711.35352.37402.17969.67871.44336.91406.78906s.35254.80859.35254,1.39062Z"/>
            <path class="cls-2" d="M484.53689,257.21342c0,.52734-.13867,1.03906-.41602,1.53711-.27637.4707-.92773,1.02539-1.95117,1.66211-1.02539.63672-2.16016,1.23828-3.40625,1.80664-1.24609.56641-2.4502,1.05273-3.61328,1.45312s-2.02148.60156-2.5752.60156c-.3877,0-.84473-.08984-1.37012-.26953-.52637-.17969-1.05273-.4082-1.5791-.68555-.52539-.27539-1.00391-.5957-1.43262-.95508-.42969-.35938-.74121-.70508-.93457-1.03906-.11035-.19336-.21484-.58008-.31152-1.16211s-.17969-1.25977-.24902-2.03516-.13184-1.59961-.18652-2.4707c-.05566-.87305-.10449-1.70312-.14551-2.49219-.04199-.78906-.06934-1.48828-.08301-2.09766-.01465-.60938-.02051-1.05273-.02051-1.33008,0-1.02344.03418-2.20117.10352-3.5293.06836-1.33008.2002-2.66406.39453-4.00781.19336-1.34375.47754-2.63086.85156-3.86328.37402-1.23047.87891-2.27734,1.51562-3.13477.19336-.25.58203-.51172,1.16309-.78906s1.2666-.54102,2.05566-.78906c.78906-.25,1.64062-.48438,2.55469-.70703.91309-.2207,1.79199-.4082,2.63672-.56055s1.61328-.27734,2.30566-.37305c.69141-.09766,1.21777-.14648,1.57812-.14648.41504,0,.80957.08984,1.18359.26953.37402.18164.69141.42383.95508.72852.2627.30469.4707.64258.62305,1.01758.15234.37305.22852.76758.22852,1.18359,0,.35938-.04883.66406-.14551.91211-.09668.25-.24219.52734-.43555.83203-.27734.35938-.8584.78906-1.74512,1.28711-.88574.49805-1.84766.99023-2.88574,1.47461-1.03906.48438-2.03516.91992-2.99121,1.30859-.95508.38672-1.62695.66406-2.01367.83008-.11133.63672-.22852,1.28125-.35352,1.93164-.12402.65039-.21484,1.30859-.26953,1.97266.85742-.44336,1.82715-.85742,2.90723-1.24609,1.08008-.38672,2.10352-.58203,3.07324-.58203,1.96582,0,2.94922.9707,2.94922,2.9082,0,.4707-.09082.88672-.27051,1.24609s-.41504.67773-.70605.95508c-.29004.27734-.62305.51953-.99609.72656-.37402.20703-.74121.4082-1.10059.60156-.88672.47266-1.81445.88086-2.7832,1.22656-.96973.3457-1.93848.68555-2.90723,1.01758-.05566.2207-.11133.46289-.16602.72656-.05566.26367-.08301.51953-.08301.76758,0,.38867.02734.77539.08301,1.16406.05469.38672.11035.77539.16602,1.16211.33203-.10938.86523-.29102,1.59863-.53906.7334-.25,1.50195-.5,2.30566-.74805.80273-.25,1.57812-.46289,2.3252-.64453.74805-.17969,1.30176-.26953,1.66211-.26953.41504,0,.80273.08984,1.16211.26953.36035.18164.66504.41602.91406.70703s.4502.62891.60254,1.01758c.15137.38672.22852.77539.22852,1.16211Z"/>
            <path class="cls-2" d="M504.76345,242.59428c0,.52539-.0625,1.08008-.18652,1.66016-.125.58203-.32617,1.12305-.60254,1.62109-.27734.49805-.6377.91406-1.08008,1.24609-.44336.33203-.9834.49805-1.62012.49805-.96875,0-1.68848-.17188-2.15918-.51953-.47168-.3457-.80371-.78125-.99707-1.30859-.19434-.52539-.29785-1.08594-.31152-1.68164s-.03516-1.15625-.0625-1.68164-.11816-.96289-.26953-1.30859c-.15234-.3457-.47754-.51953-.97656-.51953-.55371,0-1.03809.20117-1.45312.60156-.41504.40234-.77539.92188-1.08008,1.55859s-.56055,1.35742-.76855,2.16016c-.20703.80273-.37305,1.59766-.49805,2.38672s-.21484,1.53711-.26953,2.24414c-.05664.70508-.08398,1.28125-.08398,1.72266,0,.58203.02148,1.27344.0625,2.07812.04199.80273.17285,1.57031.39453,2.30469s.55371,1.35547.99707,1.86914c.44238.51172,1.08008.76758,1.91016.76758.55371,0,1.09375-.06836,1.62012-.20703.52539-.13867,1.05176-.29688,1.57812-.47852.52539-.17969,1.05957-.33789,1.59961-.47656.53906-.13867,1.08594-.20898,1.64062-.20898.63574,0,1.16211.25781,1.57812.76953.41504.51172.62305,1.08594.62305,1.72266,0,.88672-.27734,1.71094-.83105,2.4707-.55371.76367-1.23926,1.43359-2.05566,2.01562-.81738.58203-1.70312,1.03711-2.6582,1.37109-.95508.33203-1.82129.49805-2.5957.49805-1.99414,0-3.68262-.45117-5.06738-1.34961-1.38477-.90039-2.50586-2.0625-3.36426-3.49023-.8584-1.42578-1.47461-3.01758-1.84766-4.77539-.37402-1.75781-.56152-3.50977-.56152-5.25391,0-1.16406.11035-2.43555.33301-3.82227.2207-1.38281.55273-2.77539.99609-4.17383.44336-1.39648,1.00391-2.74609,1.68262-4.04883.67773-1.30078,1.47461-2.45117,2.3877-3.44727.91406-.99609,1.94531-1.79883,3.09473-2.4082,1.14844-.60938,2.41504-.91406,3.7998-.91406,1.35645,0,2.49219.33984,3.40625,1.01758.91309.67773,1.64648,1.53711,2.20117,2.57422.55371,1.03906.94043,2.17383,1.16309,3.40625.2207,1.23242.33203,2.40234.33203,3.50977Z"/>
            <path class="cls-2" d="M526.3611,239.97709c0,2.29883-.05664,4.60352-.16699,6.91602s-.24902,4.61719-.41504,6.91406c-.02734.41602-.05566.97656-.08301,1.68359-.02832.70508-.08301,1.4668-.16602,2.2832-.08301.81836-.19434,1.64062-.33203,2.4707-.13965.83203-.35352,1.58594-.64453,2.26367-.29004.67969-.66406,1.23242-1.12109,1.66211s-1.01758.64453-1.68164.64453c-.58203,0-1.10059-.125-1.55762-.375-.45703-.24805-.83789-.57422-1.14258-.97461-.30469-.40234-.54004-.85938-.70605-1.37109s-.24902-1.04492-.24902-1.59961c0-.91406.02734-1.83398.08301-2.76172s.13867-1.84766.24902-2.76172l-4.11133.41406c-.08301.7207-.17383,1.58594-.27051,2.59766-.09668,1.00977-.29004,1.97852-.58105,2.90625s-.72656,1.72461-1.30859,2.38867c-.58105.66406-1.38477.99609-2.4082.99609-.6377,0-1.16309-.14453-1.5791-.43555-.41504-.29102-.74707-.66406-.99609-1.12109s-.42969-.96289-.54004-1.51562c-.11133-.55469-.16602-1.08008-.16602-1.57812,0-1.66211.06836-3.31641.20703-4.96484.13867-1.64648.23535-3.30078.29102-4.96289.05566-1.74414.07617-3.49414.0625-5.25391-.01465-1.75781.00586-3.52344.0625-5.29492.02734-.58203.04785-1.25977.06152-2.03516s.11035-1.50195.29102-2.18164c.17969-.67773.48438-1.25195.91406-1.72266.42871-.4707,1.07227-.70703,1.93066-.70703,1.19043,0,2.09082.3125,2.7002.93555.6084.62305,1.03809,1.39844,1.28711,2.32617s.37402,1.91016.37402,2.94922v2.80273c0,1.10742-.02734,2.19531-.08301,3.25977-.05566,1.06641-.11133,2.13867-.16602,3.21875l4.44434-.66406c.02734-1.35547.05469-2.69922.08301-4.0293.02734-1.32812.08301-2.6582.16602-3.98633.02734-.63672.05469-1.31445.08301-2.03516.02734-.7207.1377-1.38477.33203-1.99414.19336-.60742.51953-1.11328.97656-1.51562.45605-.40039,1.1416-.60156,2.05566-.60156.77441,0,1.4043.2207,1.88965.66406.48438.44336.87207.98242,1.16309,1.61914.29004.63867.49121,1.31641.60156,2.03516.11035.7207.16699,1.37109.16699,1.95312v.53906Z"/>
            <path class="cls-2" d="M547.20974,257.21342c0,.52734-.13867,1.03906-.41504,1.53711-.27734.4707-.92773,1.02539-1.95215,1.66211s-2.16016,1.23828-3.40527,1.80664c-1.24609.56641-2.45117,1.05273-3.61426,1.45312-1.16211.40039-2.02148.60156-2.57422.60156-.38867,0-.8457-.08984-1.37109-.26953-.52637-.17969-1.05273-.4082-1.57812-.68555-.52637-.27539-1.00391-.5957-1.43262-.95508-.42969-.35938-.74121-.70508-.93457-1.03906-.11133-.19336-.21484-.58008-.31152-1.16211-.09766-.58203-.18066-1.25977-.24902-2.03516-.07031-.77539-.13184-1.59961-.1875-2.4707-.05566-.87305-.10352-1.70312-.14551-2.49219-.04102-.78906-.06934-1.48828-.08301-2.09766s-.02051-1.05273-.02051-1.33008c0-1.02344.03418-2.20117.10352-3.5293.06934-1.33008.20117-2.66406.39453-4.00781s.47754-2.63086.85156-3.86328c.37402-1.23047.87891-2.27734,1.5166-3.13477.19336-.25.58105-.51172,1.16211-.78906.58203-.27734,1.26758-.54102,2.05664-.78906.78906-.25,1.64062-.48438,2.55371-.70703.91406-.2207,1.79297-.4082,2.6377-.56055.84375-.15234,1.6123-.27734,2.30469-.37305.69238-.09766,1.21875-.14648,1.57812-.14648.41602,0,.81055.08984,1.18457.26953.37305.18164.69141.42383.95508.72852.2627.30469.4707.64258.62305,1.01758.15137.37305.22852.76758.22852,1.18359,0,.35938-.04883.66406-.14551.91211-.09766.25-.24316.52734-.43652.83203-.27734.35938-.8584.78906-1.74414,1.28711-.88672.49805-1.84863.99023-2.88672,1.47461s-2.03516.91992-2.99023,1.30859c-.95508.38672-1.62695.66406-2.01465.83008-.11035.63672-.22852,1.28125-.35254,1.93164-.125.65039-.21484,1.30859-.27051,1.97266.8584-.44336,1.82812-.85742,2.90723-1.24609,1.08008-.38672,2.10449-.58203,3.07422-.58203,1.96484,0,2.94824.9707,2.94824,2.9082,0,.4707-.08984.88672-.26953,1.24609-.18066.35938-.41504.67773-.70605.95508s-.62305.51953-.99707.72656-.74121.4082-1.10059.60156c-.88672.47266-1.81348.88086-2.78223,1.22656-.96973.3457-1.93848.68555-2.9082,1.01758-.05566.2207-.11035.46289-.16602.72656s-.08301.51953-.08301.76758c0,.38867.02734.77539.08301,1.16406.05566.38672.11035.77539.16602,1.16211.33301-.10938.86523-.29102,1.59961-.53906.7334-.25,1.50195-.5,2.30469-.74805.80273-.25,1.57812-.46289,2.32617-.64453.74707-.17969,1.30078-.26953,1.66113-.26953.41504,0,.80273.08984,1.16309.26953.35938.18164.66406.41602.91406.70703.24902.29102.44922.62891.60156,1.01758.15234.38672.22852.77539.22852,1.16211Z"/>
          </g>
        </g>
      </g>
    </g>
  </g>
</svg>