<svg width="149" height="30" viewBox="0 0 149 30" fill="none" xmlns="http://www.w3.org/2000/svg">
<g clip-path="url(#clip0_419_846)">
<path d="M43.1721 18.6441C43.6321 18.6441 44.0264 18.6119 44.3549 18.5151C44.6835 18.4183 44.9135 18.3538 45.1106 18.1925C45.3077 18.0312 45.4392 17.9022 45.5049 17.7087C45.5706 17.5474 45.6363 17.3216 45.6363 17.0958C45.6363 16.6119 45.4063 16.1925 44.9463 15.9022C44.4864 15.6119 43.6978 15.2571 42.5479 14.87C42.055 14.7087 41.5622 14.5151 41.0694 14.2893C40.5765 14.0635 40.1494 13.7732 39.7551 13.4506C39.3609 13.128 39.0323 12.7087 38.8023 12.2248C38.5723 11.7409 38.4409 11.1925 38.4409 10.4829C38.4409 9.80544 38.5723 9.19254 38.8352 8.64415C39.098 8.09576 39.4594 7.64415 39.9523 7.25706C40.4123 6.86996 41.0037 6.57964 41.6936 6.35383C42.3507 6.12802 43.1393 6.03125 43.9935 6.03125C45.012 6.03125 45.8991 6.16028 46.622 6.35383C47.3448 6.57964 47.969 6.80544 48.429 7.06351L47.4762 9.67641C47.0491 9.4506 46.5891 9.25705 46.0634 9.12802C45.5377 8.96673 44.9463 8.86996 44.2235 8.86996C43.4021 8.86996 42.8436 8.99899 42.4822 9.19254C42.1208 9.38609 41.9565 9.74093 41.9565 10.1925C41.9565 10.4506 42.0222 10.7087 42.1536 10.87C42.285 11.0635 42.4822 11.2248 42.7122 11.3861C42.9421 11.5474 43.2378 11.6764 43.5335 11.8054C43.8621 11.9345 44.1907 12.0635 44.5521 12.1603C45.3077 12.4506 45.9977 12.7087 46.5891 12.999C47.1477 13.2571 47.6405 13.6119 48.0348 13.9667C48.3962 14.3216 48.6919 14.7732 48.889 15.2571C49.0861 15.7732 49.1518 16.3538 49.1518 17.0635C49.1518 18.4506 48.659 19.5151 47.6733 20.2571C46.6877 20.999 45.2092 21.3861 43.2378 21.3861C42.5807 21.3861 41.9893 21.3538 41.4308 21.2571C40.9051 21.1925 40.4123 21.0958 40.018 20.9667C39.5909 20.8377 39.2623 20.7409 38.9666 20.6119C38.6709 20.4829 38.4081 20.3538 38.2109 20.2571L39.1637 17.6119C39.6237 17.8377 40.1823 18.0635 40.8065 18.2571C41.3979 18.5474 42.2193 18.6441 43.1721 18.6441Z" fill="#272641"/>
<path d="M54.2116 6.83487C54.2116 7.41551 54.0145 7.86712 53.6531 8.22196C53.2917 8.54454 52.8317 8.73809 52.306 8.73809C51.7803 8.73809 51.3532 8.5768 50.9589 8.22196C50.5975 7.89938 50.4004 7.41551 50.4004 6.83487C50.4004 6.25422 50.5975 5.80261 50.9589 5.44777C51.3203 5.12519 51.7803 4.93164 52.306 4.93164C52.8317 4.93164 53.2588 5.09293 53.6531 5.44777C54.0145 5.80261 54.2116 6.25422 54.2116 6.83487ZM53.9159 21.222H50.6961V10.0607H53.9159V21.222Z" fill="#272641"/>
<path d="M61.8012 15.3218C61.8012 14.2896 61.6697 13.5799 61.4069 13.1605C61.144 12.7412 60.6841 12.5154 60.0269 12.5154C59.8298 12.5154 59.5998 12.5476 59.4027 12.5476C59.1727 12.5799 58.9756 12.5799 58.7784 12.6121V21.2573H55.5586V10.4509C55.8214 10.3863 56.15 10.2896 56.5114 10.2251C56.8728 10.1605 57.2671 10.0638 57.6613 9.99924C58.0885 9.93473 58.4827 9.87021 58.9099 9.83795C59.337 9.8057 59.7641 9.77344 60.1912 9.77344C61.0126 9.77344 61.7026 9.87021 62.1954 10.096C62.7211 10.3218 63.1154 10.5476 63.4439 10.838C63.9039 10.5154 64.4296 10.2573 65.0539 10.096C65.6453 9.90247 66.2038 9.83795 66.6966 9.83795C67.6166 9.83795 68.3394 9.96699 68.9308 10.1928C69.5222 10.4509 69.9822 10.8057 70.3436 11.2251C70.705 11.6767 70.935 12.225 71.0664 12.838C71.1978 13.4509 71.2636 14.1605 71.2636 14.9347V21.2573H68.0437V15.3218C68.0437 14.2896 67.9123 13.5799 67.6494 13.1605C67.3866 12.7412 66.9266 12.5154 66.2695 12.5154C66.1052 12.5154 65.8424 12.5476 65.5467 12.6444C65.2181 12.7089 64.9881 12.838 64.791 12.967C64.8896 13.2896 64.9553 13.6444 64.9881 13.9992C65.021 14.3541 65.021 14.7412 65.021 15.1605V21.2573H61.8012V15.3218Z" fill="#272641"/>
<path d="M83.5189 15.5789C83.5189 16.4499 83.4204 17.2241 83.1904 17.9338C82.9604 18.6435 82.6647 19.2564 82.2376 19.7402C81.8105 20.2564 81.2848 20.6435 80.6934 20.9338C80.0691 21.2241 79.3463 21.3531 78.5578 21.3531C78.0978 21.3531 77.7035 21.3209 77.3092 21.2241C76.915 21.1596 76.5536 20.9983 76.1921 20.8693V25.0628H72.9395V10.3854C73.2352 10.3209 73.5637 10.2241 73.9251 10.1273C74.2865 10.0628 74.6808 9.96604 75.1079 9.93378C75.535 9.86927 75.9293 9.83701 76.3564 9.80475C76.7835 9.77249 77.1778 9.74023 77.5721 9.74023C78.5249 9.74023 79.3463 9.86927 80.0691 10.1596C80.7919 10.4177 81.4162 10.8047 81.909 11.3209C82.4347 11.837 82.7961 12.4499 83.059 13.1596C83.3875 13.9015 83.5189 14.708 83.5189 15.5789ZM80.2334 15.6757C80.2334 14.708 80.0034 13.9015 79.5763 13.3209C79.1163 12.7402 78.4592 12.4177 77.5721 12.4177C77.2764 12.4177 77.0135 12.4499 76.7507 12.4499C76.5207 12.4822 76.2907 12.4822 76.1264 12.5144V18.2241C76.3236 18.3531 76.5864 18.4499 76.915 18.5467C77.2435 18.6112 77.5721 18.6757 77.9006 18.6757C79.4777 18.708 80.2334 17.708 80.2334 15.6757Z" fill="#272641"/>
<path d="M89.7274 21.3855C88.7746 21.3532 88.019 21.2564 87.4276 21.0951C86.8361 20.9338 86.3762 20.6435 86.0476 20.3209C85.7191 19.9984 85.4891 19.579 85.3576 19.0951C85.2262 18.6113 85.1934 18.0951 85.1934 17.4822V5.19191L88.4132 4.67578V16.8371C88.4132 17.1274 88.4461 17.3855 88.4789 17.6113C88.5118 17.8371 88.6104 18.0306 88.7418 18.1919C88.8732 18.3532 89.0375 18.4822 89.2675 18.579C89.4975 18.6758 89.7932 18.7403 90.1874 18.7726L89.7274 21.3855Z" fill="#272641"/>
<path d="M95.446 6.83487C95.446 7.41551 95.2489 7.86712 94.8875 8.22196C94.526 8.5768 94.0661 8.73809 93.5404 8.73809C93.0147 8.73809 92.5876 8.5768 92.1933 8.22196C91.8319 7.89938 91.6348 7.41551 91.6348 6.83487C91.6348 6.25422 91.8319 5.80261 92.1933 5.44777C92.5547 5.12519 93.0147 4.93164 93.5404 4.93164C94.0661 4.93164 94.4932 5.09293 94.8875 5.44777C95.2489 5.80261 95.446 6.25422 95.446 6.83487ZM95.1503 21.222H91.9305V10.0607H95.1503V21.222Z" fill="#272641"/>
<path d="M106.912 10.9351C106.912 12.0319 106.616 12.9028 106.025 13.548C105.433 14.1932 104.645 14.6448 103.692 14.9351C103.922 15.2254 104.218 15.5803 104.612 16.0641C104.973 16.548 105.368 17.0641 105.762 17.6448C106.156 18.2254 106.518 18.8383 106.912 19.4512C107.273 20.0641 107.602 20.677 107.865 21.2254H106.288C105.992 20.677 105.663 20.0964 105.302 19.5157C104.941 18.9674 104.579 18.3867 104.218 17.8706C103.856 17.3545 103.495 16.8383 103.166 16.3867C102.805 15.9351 102.509 15.548 102.246 15.1932C101.786 15.2254 101.326 15.2577 100.867 15.2577H98.4352V21.1932H96.9238V6.80607C97.4495 6.67704 98.0409 6.54801 98.7637 6.48349C99.4537 6.41898 100.111 6.38672 100.702 6.38672C102.772 6.38672 104.316 6.77382 105.368 7.51575C106.386 8.28994 106.912 9.45123 106.912 10.9351ZM100.867 7.64478C100.308 7.64478 99.848 7.67704 99.4209 7.7093C98.9937 7.74156 98.6652 7.77382 98.4023 7.80607V14.0641H100.439C101.096 14.0641 101.754 14.0319 102.378 13.9674C103.002 13.9028 103.495 13.7416 103.955 13.548C104.415 13.3545 104.776 12.9996 105.006 12.6125C105.269 12.1932 105.401 11.6448 105.401 10.9351C105.401 10.2899 105.269 9.74156 105.006 9.3222C104.743 8.90285 104.415 8.58027 103.988 8.3222C103.561 8.06414 103.068 7.90285 102.542 7.80607C101.984 7.7093 101.425 7.64478 100.867 7.64478Z" fill="#272641"/>
<path d="M119.594 15.7087C119.594 16.5797 119.463 17.3539 119.233 18.0636C118.97 18.7732 118.608 19.3862 118.181 19.87C117.721 20.3862 117.196 20.741 116.571 21.0313C115.947 21.2894 115.257 21.4507 114.534 21.4507C113.779 21.4507 113.089 21.3216 112.497 21.0313C111.873 20.7732 111.347 20.3862 110.887 19.87C110.427 19.3539 110.066 18.7732 109.836 18.0636C109.573 17.3539 109.475 16.5797 109.475 15.7087C109.475 14.8378 109.606 14.0636 109.836 13.3539C110.099 12.6442 110.46 12.0313 110.887 11.5474C111.347 11.0313 111.873 10.6442 112.497 10.3862C113.122 10.1281 113.812 9.9668 114.534 9.9668C115.257 9.9668 115.98 10.0958 116.571 10.3862C117.196 10.6442 117.721 11.0313 118.181 11.5474C118.641 12.0636 119.003 12.6442 119.233 13.3539C119.496 14.0313 119.594 14.8378 119.594 15.7087ZM118.116 15.7087C118.116 14.3216 117.787 13.2571 117.163 12.4184C116.506 11.612 115.619 11.1926 114.534 11.1926C113.45 11.1926 112.53 11.612 111.906 12.4184C111.249 13.2249 110.953 14.3216 110.953 15.7087C110.953 17.0958 111.282 18.1603 111.906 18.9668C112.563 19.7732 113.45 20.1926 114.534 20.1926C115.651 20.1926 116.539 19.7732 117.163 18.9668C117.787 18.1603 118.116 17.0636 118.116 15.7087Z" fill="#272641"/>
<path d="M130.109 20.8043C129.682 20.9333 129.123 21.0301 128.4 21.1914C127.677 21.3204 126.823 21.4172 125.805 21.4172C124.983 21.4172 124.26 21.2882 123.702 21.0624C123.143 20.8366 122.683 20.4817 122.355 20.0301C121.993 19.5785 121.763 19.0624 121.599 18.4495C121.435 17.8366 121.369 17.1269 121.369 16.385V10.1914H122.782V15.9011C122.782 16.6753 122.848 17.3204 122.946 17.8688C123.078 18.4172 123.242 18.8366 123.505 19.1914C123.768 19.514 124.096 19.7721 124.523 19.9011C124.95 20.0624 125.443 20.1269 126.035 20.1269C126.692 20.1269 127.283 20.0946 127.776 19.9979C128.269 19.9333 128.597 19.8688 128.696 19.8043V10.1914H130.109V20.8043Z" fill="#272641"/>
<path d="M133.099 10.1909H137.567V11.3522H133.099V17.1909C133.099 17.8038 133.164 18.3199 133.263 18.707C133.394 19.0941 133.526 19.4167 133.723 19.6103C133.92 19.8361 134.183 19.9651 134.446 20.0296C134.741 20.0941 135.07 20.1586 135.399 20.1586C135.99 20.1586 136.45 20.0941 136.811 19.9651C137.173 19.8361 137.468 19.707 137.666 19.6103L138.027 20.7393C137.83 20.8683 137.468 20.9973 136.976 21.1586C136.483 21.3199 135.924 21.4167 135.333 21.4167C134.643 21.4167 134.051 21.3199 133.592 21.1586C133.132 20.9973 132.737 20.707 132.474 20.3522C132.212 19.9973 132.014 19.5457 131.883 18.9973C131.752 18.449 131.719 17.8038 131.719 17.0941V6.9651L133.132 6.70703L133.099 10.1909Z" fill="#272641"/>
<path d="M139.637 15.6755C139.637 14.7078 139.768 13.8691 140.064 13.1594C140.327 12.4497 140.721 11.8368 141.181 11.3529C141.641 10.8691 142.134 10.5142 142.725 10.2884C143.317 10.0626 143.908 9.93359 144.532 9.93359C145.879 9.93359 146.996 10.3852 147.818 11.2562C148.639 12.1271 149.033 13.482 149.033 15.3207C149.033 15.4497 149.033 15.5465 149.001 15.6755C149.001 15.8046 148.968 15.9013 148.968 15.9981H141.115C141.148 17.3529 141.477 18.3852 142.134 19.0949C142.758 19.8046 143.777 20.1917 145.156 20.1917C145.912 20.1917 146.536 20.1271 146.964 19.9658C147.423 19.8368 147.719 19.7078 147.916 19.611L148.179 20.8046C147.982 20.9336 147.588 21.0626 147.029 21.2239C146.471 21.3852 145.814 21.4497 145.091 21.4497C144.105 21.4497 143.284 21.3207 142.594 21.0304C141.904 20.74 141.345 20.3529 140.885 19.8368C140.425 19.3207 140.13 18.7078 139.932 18.0304C139.735 17.2884 139.637 16.5142 139.637 15.6755ZM147.555 14.8046C147.522 13.6755 147.259 12.7723 146.734 12.1271C146.208 11.482 145.485 11.1917 144.532 11.1917C144.007 11.1917 143.579 11.2884 143.185 11.482C142.791 11.6755 142.429 11.9336 142.134 12.2884C141.838 12.611 141.608 12.9981 141.444 13.4497C141.279 13.9013 141.181 14.3529 141.148 14.8368H147.555V14.8046Z" fill="#272641"/>
<path d="M6.2097 21.6774C6.63682 21.6774 7.06395 21.7742 7.45821 21.9355L11.7623 17.4839C11.4337 16.9032 11.2037 16.1935 11.2037 15.4516C11.2037 13.5484 12.3537 11.9355 14.2922 11.4839V3.12903C13.0437 2.67742 12.2551 1.54839 12.2551 0.225806C12.2551 0.129032 12.2551 0.0645161 12.2551 0C5.25689 1.41935 0 7.51613 0 14.8387C0 18.2903 1.1828 21.4516 3.15413 24C3.51555 22.6774 4.76406 21.6774 6.2097 21.6774ZM6.40684 9.87097C7.55678 9.87097 8.44388 10.7742 8.44388 11.871C8.44388 13 7.52392 13.871 6.40684 13.871C5.25689 13.871 4.36979 12.9677 4.36979 11.871C4.36979 10.7742 5.28975 9.87097 6.40684 9.87097Z" fill="#4C3BEF"/>
<path d="M23.5897 7.54543C23.4911 7.22285 23.4254 6.86801 23.4254 6.51317C23.4254 5.09381 24.3454 3.90026 25.5939 3.44865C23.6554 1.77123 21.2898 0.577684 18.6613 0.0292969C18.6613 0.093813 18.6613 0.158329 18.6613 0.255103C18.6613 1.60994 17.6428 2.73897 16.5586 3.19059V11.5777C16.7229 11.7067 17.4457 11.9325 17.8071 12.1906L23.5897 7.54543Z" fill="#4C3BEF"/>
<path d="M26.7442 9.77079C26.087 9.77079 25.4956 9.57724 24.97 9.25466L19.2531 13.8998C19.4502 14.3837 19.5816 14.8998 19.5816 15.4805C19.5816 16.2547 19.3516 16.9643 18.9902 17.6095L23.2943 22.545C23.6557 22.416 24.0171 22.3514 24.4114 22.3514C25.7913 22.3514 26.9741 23.1902 27.4998 24.3514C29.6354 21.7385 30.9168 18.4482 30.9168 14.8676C30.9168 12.5772 30.3911 10.416 29.4712 8.48047C28.8141 9.25466 27.8612 9.77079 26.7442 9.77079Z" fill="#4C3BEF"/>
<path d="M13.3719 19.0332L9.10072 23.4203C9.29785 23.8397 9.42928 24.3235 9.42928 24.8074C9.42928 26.1622 8.57503 27.2913 7.35938 27.7429C9.72498 29.1622 12.4848 30.0009 15.4418 30.0009C18.0046 30.0009 20.403 29.388 22.5386 28.3235C21.6515 27.7429 21.0601 26.7429 21.0601 25.6138C21.0601 25.0009 21.2244 24.4203 21.553 23.9364L17.3146 19.0655C16.7232 19.3558 16.099 19.5493 15.3761 19.5493C14.6533 19.5493 13.9633 19.3558 13.3719 19.0332Z" fill="#4C3BEF"/>
</g>
<defs>
<clipPath id="clip0_419_846">
<rect width="149" height="30" fill="white"/>
</clipPath>
</defs>
</svg>
