<svg xmlns="http://www.w3.org/2000/svg" viewBox="0 0 186.45 38.23"><defs><style>.cls-1{fill:#E30613;}</style></defs><g id="Layer_2" data-name="Layer 2"><g id="footer"><path class="cls-1" d="M24.14,33.15c-3,2.73-6.36,3.59-10.28,3.59C8.6,36.74,4.54,35.3,0,32.91l3.92-9.27c2.39,1.68,5.26,3.63,8.27,3.63,1.24,0,3.2-.47,3.2-2.05,0-1.34-1.43-1.58-2.44-1.77A35.77,35.77,0,0,1,8,22.3a8.78,8.78,0,0,1-6.45-8.79c0-7.93,6.6-12.19,14-12.19,4.39,0,8,1.39,11.85,3.2l-3.59,8.75c-2.24-1.34-4.39-2.63-7.12-2.63-1.1,0-2.77.29-2.77,1.72s1.58,1.53,2.53,1.72a37.25,37.25,0,0,1,5.41,1.44c4.06,1.62,6.26,4.63,6.26,9A11.24,11.24,0,0,1,24.14,33.15Z"/><path class="cls-1" d="M63.81,36,62.33,18,56.5,36H49.18L43.54,18,42,36H29.58L34,2.23H48l4.87,16.06L57.59,2.23h14L76.14,36Z"/><path class="cls-1" d="M109.21,21.2c0,4-.24,7.79-3.1,10.9C103,35.54,98.55,36.74,94,36.74c-5.92,0-12.47-2-14.81-8a18.69,18.69,0,0,1-1-7.27V2.23H90.57V21.44c0,2.2.43,4.5,3.16,4.5,2.53,0,3.06-2.25,3.06-4.3V2.23h12.42Z"/><path class="cls-1" d="M157.76,2.56a19.15,19.15,0,0,0-9,12.13l0,.17h25.2l5.91-10.24-.09-.08a19.14,19.14,0,0,0-21.94-2"/><path class="cls-1" d="M160.28,15.57H148.54l0,.12a19.43,19.43,0,0,0-.32,3.45,19.12,19.12,0,0,0,24.59,18.3l.17,0-.09-.15L160.4,15.64l0-.07Z"/><path class="cls-1" d="M180.24,5.25l-12.5,21.68,5.91,10.24.1,0a19.12,19.12,0,0,0,6.71-31.91l-.13-.12Z"/></g></g></svg>