<?xml version="1.0" encoding="UTF-8"?>
<svg id="Layer_2" data-name="Layer 2" xmlns="http://www.w3.org/2000/svg" viewBox="0 0 128.65 32.33">
  <defs>
    <style>
      .cls-1 {
        fill: #009bdb;
      }

      .cls-1, .cls-2, .cls-3, .cls-4 {
        stroke-width: 0px;
      }

      .cls-2 {
        fill: #d6186f;
      }

      .cls-3 {
        fill: #777679;
      }

      .cls-4 {
        fill: #6f2277;
      }
    </style>
  </defs>
  <g id="Capa_1" data-name="Capa 1">
    <g>
      <path class="cls-1" d="M1.62,7.73c.9,0,1.63-.73,1.63-1.63s-.73-1.63-1.63-1.63S0,5.2,0,6.1s.73,1.63,1.62,1.63"/>
      <path class="cls-4" d="M127.02,20.46c.9,0,1.62-.73,1.62-1.63s-.73-1.63-1.62-1.63-1.62.73-1.62,1.63.73,1.63,1.62,1.63"/>
      <path class="cls-2" d="M50.32,10.61h0c0-1.83-.64-3.36-1.78-4.4l-.08-.07-.02-.02h0c-1.07-.92-2.53-1.41-4.27-1.43h-.04s-.05,0-.05,0h-.01c-.05,0-.08,0-.11,0-.02,0-.05,0-.09,0h-.03s-.03,0-.05,0h0s-.01,0-.01,0h-.03c-1.73.02-3.18.51-4.26,1.43l-.1.09c-1.14,1.03-1.77,2.56-1.78,4.37h0,0s0,9.37,0,9.37c0,.13.05.25.15.33.09.09.23.14.36.14h1.67c.13,0,.26-.05.36-.14.09-.09.15-.21.15-.33v-9.04c0-1.33.34-2.27.96-2.89.6-.6,1.5-.94,2.74-.97,1.24.02,2.14.36,2.73.97.61.62.95,1.56.96,2.89v9.04c0,.13.06.25.15.33.09.09.23.14.36.14h1.67c.12,0,.26-.05.35-.14.1-.09.15-.21.15-.33v-9.34Z"/>
      <path class="cls-2" d="M108.42,10.59h0c0-1.83-.64-3.36-1.78-4.4l-.08-.07-.02-.02c-1.08-.92-2.54-1.41-4.27-1.43h-.04s-.04,0-.04,0h-.01c-.05,0-.08,0-.12,0-.01,0-.05,0-.09,0h-.03s-.03,0-.05,0h0s-.01,0-.01,0h-.03c-1.73.02-3.18.51-4.26,1.43h0s-.1.09-.1.09c-1.14,1.03-1.77,2.56-1.78,4.37h0s0,9.37,0,9.37c0,.13.05.25.15.33.1.09.22.14.36.14h1.67c.14,0,.26-.05.36-.14.1-.09.15-.21.15-.33v-9.04c0-1.33.35-2.27.97-2.89.58-.6,1.49-.94,2.74-.97,1.24.02,2.14.36,2.73.97.61.62.95,1.56.96,2.89v9.04c0,.13.06.25.15.33.1.09.23.14.36.14h1.67c.13,0,.26-.05.35-.14.09-.09.15-.21.15-.33v-9.34Z"/>
      <path class="cls-2" d="M77.75,6.28s-.02-.02-.03-.03c-.95-.87-2.47-1.42-4.23-1.42h-.1c-1.44,0-2.87.3-4.11,1.37v-.93s0,0,0,0V.55c0-.12-.05-.25-.15-.33-.09-.09-.22-.14-.35-.14h-1.64c-.13,0-.26.05-.36.14-.09.08-.15.21-.15.33v4.72s0,10.02,0,10.02v4.69c0,.13.06.25.15.34.09.09.22.14.36.14h1.64c.13,0,.26-.05.35-.14.1-.09.15-.21.15-.34v-.97c1.1,1.22,2.67,1.65,4.11,1.65h.1c1.76,0,3.28-.55,4.22-1.42,1.77-1.68,2.17-4.25,2.18-6.64,0-2.37-.41-4.64-2.15-6.31M77.26,12.59v.04s0,0,0,0v.03c0,1.49-.16,2.95-.72,3.99-.56,1-1.45,1.67-3.19,1.7h-.06s-.03,0-.03,0c-1.75-.02-2.66-.69-3.22-1.7-.57-1.05-.73-2.52-.73-4.01v-.09c0-1.49.16-2.69.73-3.73.57-1.02,1.47-1.69,3.22-1.7h.02s.03,0,.03,0h.03c1.75.01,2.66.68,3.22,1.7.57,1.04.73,2.24.73,3.73v.04Z"/>
      <path class="cls-2" d="M35.72,9.92h0c0-1.6-.53-2.96-1.63-3.87-1.12-.91-2.71-1.35-4.78-1.35h-.07s-.03,0-.03,0c-2.16,0-3.88.47-5.19,1.86h0s-.08.09-.08.09c-.1.11-.2.22-.29.34t0,0l-.13.16c-.08.1-.13.22-.11.36.01.13.08.25.18.34l.07.06s.06.06.1.1l.29.24.78.67c.1.08.23.13.36.12.13,0,.25-.06.33-.16l.49-.59h0c.31-.34.63-.58,1.02-.75.55-.24,1.25-.35,2.25-.36h.02s.03,0,.03,0c1.44,0,2.34.3,2.85.74.51.44.77,1.11.78,2.15v.05s0,.98,0,.98h-4.27c-1.73.01-3.17.4-4.21,1.21-1.04.79-1.61,2.02-1.61,3.44v.05c0,1.19.45,2.35,1.26,3.16,1.09,1.08,2.55,1.47,4.76,1.47h.02s1.11,0,1.11,0c2.01,0,3.47-.5,4.4-1.5.92-1,1.29-2.46,1.29-4.27v-4.73s0-.03,0-.03ZM32.97,14.74c0,1.26-.28,1.95-.65,2.27-.89.82-1.99.95-3.33.95h-.01s-.03,0-.03,0c-1.29,0-2.13-.22-2.62-.57-.46-.33-.69-.8-.7-1.61v-.03c0-.81.25-1.31.72-1.66.48-.37,1.29-.61,2.51-.61h.02s4.09,0,4.09,0v1.28Z"/>
      <path class="cls-2" d="M93.85,9.92h0c0-1.59-.53-2.95-1.64-3.86-1.11-.92-2.71-1.35-4.78-1.35h-.07s-.03,0-.03,0c-2.17,0-3.88.47-5.19,1.86h0s-.07.09-.07.09c-.1.11-.19.22-.29.34h0s-.13.16-.13.16c-.08.09-.13.22-.11.35.02.13.08.25.18.34l.07.06s.06.07.1.1l.29.24.78.67c.1.09.23.14.35.13.13,0,.25-.07.33-.16l.5-.6c.31-.34.63-.58,1.02-.74.55-.24,1.25-.36,2.26-.36h0s.04,0,.04,0c1.45,0,2.33.3,2.85.74.51.45.77,1.11.78,2.15,0,0,0,.03,0,.05v.98s-4.28,0-4.28,0c-1.73,0-3.16.4-4.21,1.21-1.03.8-1.61,2.02-1.61,3.44v.06c0,1.19.44,2.35,1.26,3.16,1.09,1.08,2.55,1.47,4.76,1.47h.03s1.11,0,1.11,0c2.02,0,3.46-.5,4.39-1.5.93-1,1.3-2.46,1.3-4.26v-4.72s0-.03,0-.03ZM83.76,15.78v-.04c.01-.81.25-1.31.71-1.66.48-.37,1.3-.61,2.52-.61h.01s4.1,0,4.1,0v1.28c0,1.25-.28,1.94-.65,2.27-.89.82-1.98.94-3.33.94h0s-.03,0-.03,0c-1.3,0-2.14-.22-2.62-.57-.46-.33-.69-.8-.71-1.61"/>
      <path class="cls-2" d="M10.03,4.77h-2.81s0-2.85,0-2.85V.53c0-.24-.22-.45-.49-.45h-1.7c-.12,0-.25.05-.34.14-.09.08-.14.2-.14.31v2.55s0,13.38,0,13.38c0,1.09.32,2.06,1.01,2.8.65.72,1.72,1.16,2.95,1.16h0s.82,0,.82,0h0s.71,0,.71,0c.13,0,.25-.05.34-.15.09-.09.13-.22.13-.36v-1.66c0-.13-.05-.26-.13-.35-.09-.1-.21-.15-.34-.15h-1.31c-.27,0-.48-.04-.66-.11-.13-.04-.19-.09-.26-.13-.08-.05-.11-.08-.19-.15-.25-.27-.39-.69-.39-1.31V7.44s2.81,0,2.81,0c.13,0,.25-.06.34-.15.09-.09.13-.22.13-.36v-1.65c0-.13-.05-.26-.13-.36-.09-.1-.21-.14-.34-.14"/>
      <path class="cls-2" d="M22.18,6.72l-.16-.17s-.02-.04-.04-.06l-.1-.1h0s-.13-.13-.13-.13l-.11-.12h0c-.96-1-2.15-1.43-3.42-1.43h-.09c-.91,0-1.97.41-2.6,1.18l-.44.52v-.22s0-.95,0-.95c0-.13-.05-.25-.14-.33-.09-.09-.22-.14-.35-.14h-1.65c-.13,0-.26.05-.35.14-.09.09-.15.21-.15.34v.95s0,13.79,0,13.79c0,.12.06.24.15.33.09.09.22.14.35.14h.28s.02,0,.03,0h1.04s.02,0,.03,0h.27c.13,0,.26-.05.35-.14.1-.09.14-.21.14-.33v-.26s0,0,0,0v-8.75s0-.03,0-.04v-.7c.05-.82.31-1.54.73-2.08.45-.57,1.12-.93,2.01-.94.47,0,.78.06,1.06.17.25.12.52.31.87.67l.08.08.35.39c.09.09.21.15.34.15.13,0,.27-.05.35-.14l1.24-1.12c.1-.09.16-.22.17-.35.02-.13-.03-.26-.11-.35"/>
      <path class="cls-2" d="M63.55,12.37s-.02-.01-.02-.01h0c-.96-.67-2.17-.9-3.49-1.01l-2.45-.21c-1.02-.08-1.65-.3-2.02-.58-.31-.24-.51-.63-.51-1.21h0s0-.04,0-.04c0-.69.28-1.2.76-1.54.51-.37,1.34-.61,2.49-.61h.01c1.48,0,2.71.35,3.73,1h0s.62.44.62.44c.1.07.23.1.35.07.12-.03.23-.11.31-.21l.91-1.33c.07-.11.11-.24.09-.37,0-.07-.04-.14-.07-.19-.03-.07-.09-.12-.15-.17l-.11-.07c-1.46-1.05-3.5-1.63-5.7-1.63-1.75,0-3.25.42-4.34,1.23-1.08.8-1.72,2-1.72,3.38v.02s0,0,0,0v.05c0,1.2.45,2.27,1.35,3,.91.74,2.18,1.14,3.79,1.26l2.52.2c.92.09,1.5.29,1.84.58.3.24.48.62.49,1.23v.04h0c0,.77-.31,1.3-.89,1.66-.62.39-1.62.64-3.03.64h0s-.02,0-.02,0h-.01c-1.84,0-3.15-.42-4.17-1.26l-.54-.45c-.1-.08-.22-.11-.35-.1-.12.01-.24.08-.33.18l-1.06,1.28c-.08.1-.13.24-.12.37,0,.13.07.25.16.33l.5.42h0s.02.02.03.03l.07.06h0c1.55,1.11,3.48,1.65,5.84,1.65h.04c1.95,0,3.6-.43,4.8-1.25,1.19-.82,1.89-2.08,1.89-3.54v-.07c0-1.47-.57-2.57-1.5-3.23"/>
      <path class="cls-2" d="M124,19.75l-2.06-2.9-4.12-6.01,3.2-3.39,1.86-1.97.11-.13c.21-.22.11-.44.02-.52-.1-.09-.22-.14-.36-.14h-2.13c-.13,0-.3.1-.39.18h0l-7.18,7.66v-6.4s0-5.65,0-5.65c0-.13-.05-.25-.15-.34C112.71.05,112.58,0,112.45,0h-1.64c-.13,0-.26.05-.35.14-.09.09-.15.21-.15.34v5.65s0,13.81,0,13.81c0,.13.05.24.15.33.09.09.22.14.35.14h1.64c.13,0,.26-.05.35-.14.1-.09.15-.21.15-.34v-3.93s3.1-3.38,3.1-3.38l2.1,3.13h0s2.95,4.4,2.95,4.4c.06.1.17.26.42.26h2.14c.13,0,.26-.06.36-.14.09-.08.15-.31-.02-.53"/>
      <g>
        <path class="cls-3" d="M52.38,27.22c.26-.79.92-1.22,1.79-1.22.69,0,1.22.29,1.55.77.03.05.03.09-.03.13l-.42.34s-.09.04-.13,0c-.27-.33-.52-.49-.98-.49-.49,0-.86.24-1.01.71-.08.24-.1.52-.1.92s.03.69.1.93c.15.47.52.71,1.01.71.45,0,.71-.16.98-.49.04-.05.09-.05.13,0l.42.34c.06.05.06.09.03.13-.33.47-.86.77-1.55.77-.87,0-1.53-.44-1.79-1.22-.09-.27-.14-.64-.14-1.16s.06-.87.14-1.15Z"/>
        <path class="cls-3" d="M57.46,30.64c-.06,0-.09-.04-.09-.09v-4.35c0-.06.04-.09.09-.09h.61c.06,0,.09.04.09.09v.46s0,0,0,0c.2-.39.6-.66,1.2-.66.36,0,.7.13.93.34.05.05.06.09.02.13l-.35.46s-.09.06-.13.02c-.21-.13-.44-.22-.7-.22-.69,0-.98.54-.97,1.33v2.48c0,.06-.04.09-.09.09h-.61Z"/>
        <path class="cls-3" d="M61.33,29.51c-.09-.29-.15-.62-.15-1.15s.05-.87.14-1.15c.26-.79.92-1.22,1.78-1.22s1.52.44,1.78,1.22c.09.29.14.61.14,1.3,0,.06-.04.09-.1.09h-2.87s-.06.02-.06.06c0,.25.03.4.08.55.18.52.59.79,1.15.79s.92-.22,1.16-.5c.05-.05.09-.06.14-.02l.39.35s.05.09,0,.13c-.36.45-.98.78-1.77.78-.92,0-1.57-.44-1.82-1.23ZM64.15,27.98s.06-.02.06-.06c0-.21-.02-.37-.07-.51-.15-.45-.53-.71-1.04-.71s-.89.26-1.04.71c-.05.14-.07.3-.07.51,0,.04.02.06.06.06h2.1Z"/>
        <path class="cls-3" d="M66.55,27.22c.26-.79.92-1.22,1.79-1.22.69,0,1.22.29,1.55.77.03.05.03.09-.03.13l-.42.34s-.09.04-.13,0c-.27-.33-.52-.49-.98-.49-.49,0-.86.24-1.01.71-.08.24-.1.52-.1.92s.03.69.1.93c.15.47.52.71,1.01.71.45,0,.71-.16.98-.49.04-.05.09-.05.13,0l.42.34c.06.05.06.09.03.13-.33.47-.86.77-1.55.77-.87,0-1.53-.44-1.79-1.22-.09-.27-.14-.64-.14-1.16s.06-.87.14-1.15Z"/>
        <path class="cls-3" d="M71.6,25.08c-.06,0-.09-.04-.09-.09v-.69c0-.06.04-.09.09-.09h.64c.06,0,.09.04.09.09v.69c0,.06-.04.09-.09.09h-.64ZM71.62,30.64c-.06,0-.09-.04-.09-.09v-4.35c0-.06.04-.09.09-.09h.61c.06,0,.09.04.09.09v4.35c0,.06-.04.09-.09.09h-.61Z"/>
        <path class="cls-3" d="M74.13,29.51c-.09-.29-.15-.62-.15-1.15s.05-.87.14-1.15c.26-.79.92-1.22,1.78-1.22s1.52.44,1.78,1.22c.09.29.14.61.14,1.3,0,.06-.04.09-.1.09h-2.87s-.06.02-.06.06c0,.25.03.4.08.55.18.52.59.79,1.15.79s.92-.22,1.16-.5c.05-.05.09-.06.14-.02l.39.35s.05.09,0,.13c-.36.45-.98.78-1.77.78-.92,0-1.57-.44-1.82-1.23ZM76.95,27.97s.06-.02.06-.06c0-.21-.02-.37-.07-.51-.15-.45-.53-.71-1.04-.71s-.89.26-1.04.71c-.05.14-.07.3-.07.51,0,.04.02.06.06.06h2.1Z"/>
        <path class="cls-3" d="M82.43,30.63c-.06,0-.09-.04-.09-.09v-2.65c0-.73-.33-1.16-1.01-1.15-.62,0-1.04.44-1.04,1.11v2.7c0,.06-.04.09-.09.09h-.61c-.06,0-.09-.04-.09-.09v-4.35c0-.06.04-.09.09-.09h.61c.06,0,.09.04.09.09v.42s0,0,0,0c.22-.35.65-.62,1.27-.62.98,0,1.57.67,1.57,1.7v2.84c0,.06-.04.09-.09.09h-.61Z"/>
        <path class="cls-3" d="M87.85,30.63c-.06,0-.09-.04-.09-.09v-.44s0,0,0,0c-.22.36-.61.63-1.29.63-.79,0-1.34-.37-1.56-1.09-.12-.36-.16-.72-.16-1.29s.04-.92.16-1.28c.23-.72.78-1.09,1.56-1.09.68,0,1.07.26,1.29.62h0s0-2.33,0-2.33c0-.06.04-.09.09-.09h.61c.06,0,.09.04.09.09v6.25c0,.06-.04.09-.09.09h-.61ZM87.65,29.3c.08-.22.1-.49.1-.95s-.03-.72-.1-.95c-.15-.45-.5-.68-1-.68s-.84.24-.99.68c-.08.25-.1.54-.1.95s.03.71.1.95c.15.44.49.69.99.69s.85-.24,1-.69Z"/>
        <path class="cls-3" d="M90.36,29.51c-.1-.31-.15-.62-.15-1.16s.05-.83.15-1.15c.25-.78.91-1.22,1.79-1.22s1.54.44,1.79,1.22c.1.31.15.62.15,1.15s-.05.84-.15,1.16c-.25.77-.91,1.22-1.79,1.22s-1.54-.45-1.79-1.22ZM93.17,29.28c.08-.25.1-.49.1-.93s-.03-.67-.1-.92c-.15-.45-.52-.71-1.02-.71s-.87.26-1.02.71c-.08.25-.1.48-.1.92s.03.68.1.93c.15.45.52.71,1.02.71s.87-.26,1.02-.71Z"/>
        <path class="cls-3" d="M97.65,32.33c-.06,0-.09-.04-.09-.09v-.55c0-.06.04-.09.09-.09h.15c.45,0,.6-.12.6-.61v-4.8c0-.06.04-.09.09-.09h.61c.06,0,.09.04.09.09v4.78c0,.98-.43,1.36-1.35,1.36h-.19ZM98.48,25.07c-.06,0-.09-.04-.09-.09v-.69c0-.06.04-.09.09-.09h.64c.06,0,.09.04.09.09v.69c0,.06-.04.09-.09.09h-.64Z"/>
        <path class="cls-3" d="M103.98,30.62c-.06,0-.09-.04-.09-.09v-.43s0,0,0,0c-.24.38-.65.63-1.24.63-.99,0-1.57-.68-1.57-1.71v-2.83c0-.06.04-.09.09-.09h.61c.06,0,.09.04.09.09v2.64c0,.74.33,1.16,1.01,1.16.62,0,1.02-.44,1.02-1.12v-2.69c0-.06.04-.09.09-.09h.61c.06,0,.09.04.09.09v4.35c0,.06-.04.09-.09.09h-.61Z"/>
        <path class="cls-3" d="M109.56,30.62c-.06,0-.09-.04-.09-.09v-2.65c0-.73-.33-1.16-1.01-1.15-.62,0-1.04.44-1.04,1.11v2.7c0,.06-.04.09-.09.09h-.61c-.06,0-.09-.04-.09-.09v-4.35c0-.06.04-.09.09-.09h.61c.06,0,.09.04.09.09v.42s0,0,0,0c.22-.35.65-.62,1.27-.62.98,0,1.57.67,1.57,1.7v2.84c0,.06-.04.09-.09.09h-.61Z"/>
        <path class="cls-3" d="M113.46,30.67c-.88,0-1.22-.4-1.22-1.29v-2.59s-.02-.06-.06-.06h-.38c-.06,0-.09-.04-.09-.09v-.45c0-.06.04-.09.09-.09h.38s.06-.02.06-.06v-1.28c0-.06.04-.09.09-.09h.61c.06,0,.09.04.09.09v1.28s.02.06.06.06h.72c.06,0,.09.04.09.09v.45c0,.06-.04.09-.09.09h-.72s-.06.02-.06.06v2.57c0,.45.17.58.58.58h.2c.06,0,.09.04.09.09v.55c0,.06-.04.09-.09.09h-.35Z"/>
        <path class="cls-3" d="M115.39,29.5c-.1-.31-.15-.62-.15-1.16s.05-.83.15-1.15c.25-.78.91-1.22,1.79-1.22s1.54.44,1.79,1.22c.1.31.15.62.15,1.15s-.05.84-.15,1.16c-.25.77-.91,1.22-1.79,1.22s-1.54-.45-1.79-1.22ZM118.2,29.27c.08-.25.1-.49.1-.93s-.03-.67-.1-.92c-.15-.45-.52-.71-1.02-.71s-.87.26-1.02.71c-.08.25-.1.48-.1.92s.03.68.1.93c.15.45.52.71,1.02.71s.87-.26,1.02-.71Z"/>
        <path class="cls-3" d="M120.46,30.04s-.04-.09,0-.13l.39-.42s.09-.04.13,0c.34.29.85.52,1.4.52.66,0,.99-.28.99-.69,0-.36-.17-.56-.88-.63l-.48-.05c-.89-.09-1.35-.54-1.35-1.28,0-.86.61-1.38,1.69-1.38.66,0,1.23.22,1.61.5.05.03.05.09.02.13l-.32.41s-.09.05-.13.02c-.29-.19-.76-.37-1.22-.37-.57,0-.86.26-.86.63s.22.55.89.62l.47.05c.92.08,1.36.55,1.36,1.28,0,.89-.64,1.49-1.83,1.49-.88,0-1.51-.36-1.88-.68Z"/>
      </g>
    </g>
  </g>
</svg>